<svg width="557" height="767" viewBox="0 0 557 767" fill="none" xmlns="http://www.w3.org/2000/svg">
<path fill-rule="evenodd" clip-rule="evenodd" d="M337.021 559.558C336.307 562.552 333.301 564.401 330.307 563.687C327.313 562.973 325.464 559.967 326.178 556.973C326.891 553.979 329.897 552.13 332.892 552.844C335.886 553.558 337.735 556.564 337.021 559.558ZM333.406 558.696C333.168 559.694 332.166 560.311 331.168 560.073C330.17 559.835 329.554 558.833 329.792 557.835C330.03 556.837 331.032 556.22 332.03 556.458C333.028 556.696 333.644 557.698 333.406 558.696Z" fill="#404040"/>
<path fill-rule="evenodd" clip-rule="evenodd" d="M321.786 567.385C321.072 570.379 318.066 572.228 315.072 571.514C312.078 570.801 310.229 567.795 310.943 564.8C311.656 561.806 314.662 559.958 317.657 560.671C320.651 561.385 322.499 564.391 321.786 567.385ZM318.171 566.524C317.933 567.522 316.931 568.138 315.933 567.9C314.935 567.662 314.319 566.66 314.557 565.662C314.795 564.664 315.797 564.048 316.795 564.286C317.793 564.524 318.409 565.526 318.171 566.524Z" fill="#404040"/>
<path fill-rule="evenodd" clip-rule="evenodd" d="M325.137 585.373C328.131 586.087 331.137 584.238 331.851 581.244C332.565 578.25 330.716 575.244 327.722 574.53C324.728 573.816 321.722 575.665 321.008 578.659C320.294 581.653 322.143 584.659 325.137 585.373ZM328.237 580.382C327.999 581.38 326.997 581.997 325.999 581.759C325.001 581.521 324.384 580.519 324.622 579.521C324.86 578.523 325.862 577.906 326.86 578.144C327.858 578.382 328.475 579.384 328.237 580.382Z" fill="#404040"/>
<path fill-rule="evenodd" clip-rule="evenodd" d="M347.086 573.416C346.372 576.411 343.366 578.259 340.372 577.546C337.378 576.832 335.529 573.826 336.243 570.832C336.957 567.837 339.963 565.989 342.957 566.703C345.951 567.416 347.8 570.422 347.086 573.416ZM343.472 572.555C343.234 573.553 342.232 574.169 341.234 573.931C340.236 573.693 339.619 572.691 339.857 571.693C340.095 570.695 341.097 570.079 342.095 570.317C343.093 570.555 343.71 571.557 343.472 572.555Z" fill="#404040"/>
<path fill-rule="evenodd" clip-rule="evenodd" d="M320.085 494.405C319.087 494.167 318.085 494.783 317.847 495.781C317.609 496.779 318.225 497.781 319.223 498.019L333.68 501.465C336.675 502.179 338.523 505.185 337.809 508.179L334.794 520.83L314.915 516.091C311.921 515.377 308.915 517.226 308.201 520.22L307.339 523.834C306.772 526.213 307.823 528.6 309.781 529.838L298.954 583.144C298.356 586.089 300.2 588.978 303.124 589.675L342.843 599.143C345.766 599.84 348.715 598.094 349.51 595.196L364.3 541.265L366.03 534.006C366.744 531.011 364.896 528.005 361.901 527.292L338.408 521.691L341.424 509.041C342.613 504.051 339.532 499.041 334.542 497.851L320.085 494.405ZM314.053 519.705L361.04 530.906C362.038 531.144 362.654 532.146 362.416 533.144L360.7 540.342L358.887 546.953C358.372 546.716 357.788 546.467 357.147 546.227C354.65 545.291 351.152 544.436 347.425 544.986C341.298 545.89 335.755 544.568 330.695 540.998C325.642 537.431 318.736 535.467 312.386 535.68L313.338 530.994L349.419 539.595C350.417 539.833 351.419 539.217 351.657 538.219C351.895 537.221 351.279 536.219 350.281 535.981L312.33 526.934C311.332 526.696 310.716 525.694 310.954 524.696L311.815 521.081C312.053 520.083 313.055 519.467 314.053 519.705ZM355.844 549.706C356.641 550.005 357.334 550.319 357.889 550.595L345.927 594.213C345.662 595.179 344.679 595.761 343.704 595.529L303.985 586.06C303.011 585.828 302.396 584.865 302.595 583.883L311.622 539.44C317.39 539.026 323.928 540.77 328.553 544.034C334.392 548.154 340.897 549.705 347.967 548.662C350.838 548.238 353.665 548.89 355.844 549.706Z" fill="#404040"/>
<path fill-rule="evenodd" clip-rule="evenodd" d="M473.093 495.591C470.095 496.288 468.229 499.284 468.926 502.282L471.037 511.361C469.44 512.049 467.907 512.867 466.459 513.808C463.46 515.756 460.875 518.196 458.861 520.997C456.846 523.798 455.438 526.909 454.733 530.156C454.297 532.164 454.136 534.198 454.252 536.21L452.132 536.703C450.133 537.168 448.889 539.165 449.354 541.164L450.195 544.783C450.66 546.782 452.657 548.025 454.656 547.561L456.465 547.14C456.474 547.177 456.484 547.214 456.495 547.252L471.492 597.408C472.335 600.228 475.226 601.907 478.093 601.24L507.506 594.403C508.505 594.171 509.127 593.172 508.895 592.173C508.662 591.174 507.664 590.552 506.665 590.784L477.252 597.621C476.296 597.843 475.333 597.284 475.051 596.344L463.287 556.998L502.419 547.902C503.418 547.67 504.04 546.671 503.808 545.672C503.575 544.673 502.577 544.051 501.577 544.283L462.221 553.432L460.088 546.298L507.129 535.363L516.109 590.369C516.274 591.382 517.229 592.069 518.242 591.903C519.255 591.738 519.941 590.783 519.776 589.77L510.776 534.642C510.77 534.601 510.762 534.561 510.752 534.521L512.562 534.1C514.561 533.636 515.804 531.639 515.34 529.64L514.498 526.021C514.034 524.022 512.037 522.778 510.038 523.243L507.918 523.736C507.134 521.878 506.093 520.124 504.815 518.514C502.751 515.911 500.116 513.74 497.071 512.115C494.028 510.49 490.632 509.44 487.082 509.014C485.367 508.809 483.63 508.75 481.894 508.838L479.784 499.758C479.087 496.76 476.091 494.894 473.093 495.591ZM478.175 509.248L476.164 500.599C475.932 499.6 474.934 498.978 473.934 499.211C472.935 499.443 472.313 500.441 472.545 501.441L474.556 510.089C475.149 509.914 475.748 509.756 476.353 509.616C476.957 509.475 477.565 509.353 478.175 509.248ZM475.399 513.716C475.99 513.536 476.589 513.375 477.194 513.235C477.799 513.094 478.407 512.974 479.018 512.874L482.895 529.552L479.275 530.394L475.399 513.716ZM471.893 515.047C470.708 515.592 469.568 516.219 468.483 516.924C465.852 518.633 463.61 520.757 461.877 523.167C460.144 525.576 458.956 528.22 458.364 530.944C458.046 532.412 457.903 533.89 457.936 535.354L475.656 531.235L471.893 515.047ZM486.514 528.711L482.751 512.523C484.055 512.49 485.355 512.55 486.639 512.703C489.754 513.077 492.703 513.994 495.321 515.392C497.939 516.79 500.172 518.639 501.904 520.823C502.838 522 503.618 523.264 504.234 524.592L486.514 528.711ZM452.973 540.322L510.879 526.862L511.721 530.481L453.814 543.942L452.973 540.322Z" fill="#404040"/>
<path fill-rule="evenodd" clip-rule="evenodd" d="M493.664 559.474C494.361 562.472 492.496 565.467 489.498 566.164C486.499 566.861 483.504 564.996 482.807 561.998C482.11 558.999 483.976 556.004 486.974 555.307C489.972 554.61 492.968 556.476 493.664 559.474ZM490.045 560.315C490.278 561.314 489.656 562.313 488.656 562.545C487.657 562.778 486.658 562.156 486.426 561.156C486.194 560.157 486.816 559.158 487.815 558.926C488.815 558.694 489.813 559.316 490.045 560.315Z" fill="#404040"/>
<path fill-rule="evenodd" clip-rule="evenodd" d="M490.137 574.165C490.834 577.164 488.968 580.159 485.97 580.856C482.972 581.553 479.976 579.687 479.279 576.689C478.582 573.691 480.448 570.695 483.446 569.999C486.444 569.302 489.44 571.167 490.137 574.165ZM486.518 575.007C486.75 576.006 486.128 577.005 485.129 577.237C484.129 577.469 483.131 576.847 482.898 575.848C482.666 574.849 483.288 573.85 484.287 573.618C485.287 573.385 486.285 574.007 486.518 575.007Z" fill="#404040"/>
<path fill-rule="evenodd" clip-rule="evenodd" d="M486.38 587.87C487.077 590.868 485.211 593.864 482.213 594.561C479.215 595.257 476.219 593.392 475.522 590.394C474.825 587.396 476.691 584.4 479.689 583.703C482.687 583.006 485.683 584.872 486.38 587.87ZM482.761 588.711C482.993 589.711 482.371 590.709 481.372 590.941C480.372 591.174 479.374 590.552 479.141 589.552C478.909 588.553 479.531 587.555 480.53 587.322C481.53 587.09 482.528 587.712 482.761 588.711Z" fill="#404040"/>
<path fill-rule="evenodd" clip-rule="evenodd" d="M499.54 584.811C500.237 587.809 498.372 590.804 495.373 591.501C492.375 592.198 489.38 590.333 488.683 587.335C487.986 584.336 489.851 581.341 492.85 580.644C495.848 579.947 498.843 581.813 499.54 584.811ZM495.921 585.652C496.153 586.651 495.532 587.65 494.532 587.882C493.533 588.115 492.534 587.493 492.302 586.493C492.07 585.494 492.691 584.495 493.691 584.263C494.69 584.031 495.689 584.653 495.921 585.652Z" fill="#404040"/>
<path fill-rule="evenodd" clip-rule="evenodd" d="M508.534 588.442C511.532 587.745 513.398 584.75 512.701 581.752C512.004 578.753 509.008 576.888 506.01 577.585C503.012 578.282 501.146 581.277 501.843 584.275C502.54 587.274 505.536 589.139 508.534 588.442ZM507.693 584.823C508.692 584.591 509.314 583.592 509.082 582.593C508.849 581.593 507.851 580.972 506.851 581.204C505.852 581.436 505.23 582.435 505.462 583.434C505.695 584.434 506.693 585.055 507.693 584.823Z" fill="#404040"/>
<path fill-rule="evenodd" clip-rule="evenodd" d="M499.13 577.797C502.129 577.1 503.994 574.104 503.297 571.106C502.6 568.108 499.605 566.242 496.607 566.939C493.608 567.636 491.743 570.632 492.44 573.63C493.137 576.628 496.132 578.494 499.13 577.797ZM498.289 574.178C499.289 573.945 499.91 572.947 499.678 571.947C499.446 570.948 498.447 570.326 497.448 570.559C496.449 570.791 495.827 571.789 496.059 572.789C496.291 573.788 497.29 574.41 498.289 574.178Z" fill="#404040"/>
<g clip-path="url(#clip0_202_63)">
<path fill-rule="evenodd" clip-rule="evenodd" d="M384.477 206.432C385.627 209.287 384.245 212.534 381.389 213.683C378.534 214.833 375.287 213.451 374.137 210.595C372.988 207.74 374.37 204.493 377.225 203.344C380.081 202.194 383.327 203.576 384.477 206.432ZM381.031 207.819C381.414 208.771 380.953 209.854 380.001 210.237C379.05 210.62 377.967 210.159 377.584 209.207C377.201 208.256 377.662 207.173 378.613 206.79C379.565 206.407 380.647 206.868 381.031 207.819Z" fill="#404040"/>
<path fill-rule="evenodd" clip-rule="evenodd" d="M376.578 221.629C377.728 224.485 376.345 227.731 373.49 228.881C370.635 230.031 367.388 228.649 366.238 225.793C365.088 222.938 366.471 219.691 369.326 218.541C372.181 217.392 375.428 218.774 376.578 221.629ZM373.131 223.017C373.515 223.969 373.054 225.051 372.102 225.435C371.15 225.818 370.068 225.357 369.685 224.405C369.301 223.454 369.762 222.371 370.714 221.988C371.666 221.605 372.748 222.066 373.131 223.017Z" fill="#404040"/>
<path fill-rule="evenodd" clip-rule="evenodd" d="M389.717 234.363C392.572 233.213 393.955 229.967 392.805 227.111C391.655 224.256 388.409 222.874 385.553 224.023C382.698 225.173 381.315 228.42 382.465 231.275C383.615 234.131 386.862 235.513 389.717 234.363ZM389.359 228.499C389.742 229.451 389.281 230.533 388.329 230.917C387.377 231.3 386.295 230.839 385.912 229.887C385.529 228.936 385.989 227.853 386.941 227.47C387.893 227.087 388.975 227.548 389.359 228.499Z" fill="#404040"/>
<path fill-rule="evenodd" clip-rule="evenodd" d="M400.704 211.914C401.854 214.769 400.472 218.016 397.616 219.165C394.761 220.315 391.514 218.933 390.365 216.077C389.215 213.222 390.597 209.975 393.453 208.826C396.308 207.676 399.555 209.058 400.704 211.914ZM397.258 213.301C397.641 214.253 397.18 215.336 396.228 215.719C395.277 216.102 394.194 215.641 393.811 214.689C393.428 213.738 393.889 212.655 394.841 212.272C395.792 211.889 396.875 212.35 397.258 213.301Z" fill="#404040"/>
<path fill-rule="evenodd" clip-rule="evenodd" d="M332.973 163.083C332.021 163.466 331.561 164.549 331.944 165.5C332.327 166.452 333.409 166.913 334.361 166.53L348.148 160.978C351.003 159.828 354.25 161.211 355.4 164.066L360.258 176.129L341.301 183.763C338.446 184.913 337.063 188.16 338.213 191.015L339.601 194.461C340.515 196.73 342.752 198.069 345.066 197.947L367.07 247.691C368.286 250.439 371.462 251.729 374.249 250.606L412.125 235.353C414.913 234.231 416.308 231.1 415.28 228.277L396.147 175.729L393.359 168.807C392.209 165.952 388.963 164.569 386.107 165.719L363.704 174.741L358.846 162.678C356.93 157.919 351.519 155.615 346.76 157.531L332.973 163.083ZM342.689 187.21L387.495 169.166C388.447 168.783 389.529 169.243 389.913 170.195L392.677 177.059L395.022 183.501C394.465 183.605 393.845 183.74 393.183 183.915C390.605 184.596 387.256 185.922 384.534 188.527C380.06 192.808 374.774 194.937 368.581 194.951C362.396 194.965 355.627 197.358 350.57 201.205L348.635 196.832L383.043 182.976C383.994 182.592 384.455 181.51 384.072 180.558C383.689 179.607 382.606 179.146 381.655 179.529L345.465 194.103C344.513 194.486 343.431 194.025 343.048 193.074L341.66 189.627C341.276 188.675 341.737 187.593 342.689 187.21ZM394.132 187.507C394.955 187.289 395.702 187.145 396.314 187.049L411.789 229.548C412.132 230.489 411.666 231.533 410.737 231.907L372.861 247.16C371.932 247.534 370.873 247.104 370.468 246.188L352.122 204.714C356.587 201.039 362.93 198.68 368.59 198.667C375.737 198.65 381.939 196.152 387.103 191.211C389.2 189.205 391.883 188.102 394.132 187.507Z" fill="#404040"/>
</g>
<path d="M489.313 54.0389C489.219 54.4317 489.258 54.8251 489.4 55.1722C489.478 55.5477 489.673 55.9024 489.981 56.1774C493.997 59.7612 495.689 65.5887 494.231 71.7093C492.182 80.3069 483.997 85.5376 476.106 83.6578C468.215 81.778 463.267 73.4186 465.315 64.8211C466.218 61.0291 468.328 57.8776 471.084 55.7099C471.667 55.2513 471.901 54.5137 471.747 53.8355C471.791 53.5665 471.776 53.2836 471.693 53.0048C468.884 43.5804 459.001 37.6494 449.416 40.507C439.91 43.341 434.501 53.3444 437.335 62.8502C438.65 67.2583 441.508 70.7872 445.14 73.0189C445.14 73.0199 445.14 73.0179 445.14 73.0189L451.706 116.604C452.477 121.722 459.199 123.117 461.943 118.729L477.336 94.1094C477.88 93.2394 477.616 92.0932 476.746 91.5493C475.876 91.0053 474.729 91.2696 474.185 92.1396L458.792 116.759C457.878 118.222 455.637 117.757 455.38 116.051L448.815 72.4683C448.794 72.3276 448.757 72.193 448.707 72.0658C448.785 71.34 448.428 70.6056 447.747 70.2355C444.549 68.4984 442.017 65.5487 440.896 61.7886C438.649 54.2494 442.938 46.3155 450.477 44.0678C457.747 41.9006 465.456 46.2151 467.947 53.4884C464.958 56.1238 462.708 59.7297 461.7 63.9601C459.223 74.3609 465.17 84.8722 475.245 87.2723C485.32 89.6723 495.367 82.9712 497.845 72.5704C499.496 65.6387 497.797 58.6762 493.131 54.0418L493.17 53.8813L493.177 53.8478C495.089 45.1097 490.228 36.119 481.574 33.0816C476.706 31.3734 471.595 31.8869 467.354 34.0867C465.89 34.8456 464.529 35.8058 463.316 36.9459C462.568 37.6485 462.531 38.8242 463.234 39.572C463.937 40.3198 465.112 40.3564 465.86 39.6539C466.822 38.7502 467.902 37.9879 469.064 37.385C472.434 35.6374 476.482 35.2327 480.343 36.5876C487.2 38.9939 491.057 46.1155 489.551 53.0374L489.313 54.0389Z" fill="#404040"/>
<path d="M205.58 574.785C205.667 575.18 205.874 575.516 206.154 575.766C206.389 576.069 206.72 576.303 207.117 576.415C212.296 577.879 216.369 582.378 217.737 588.519C219.66 597.146 214.591 605.432 206.673 607.197C198.755 608.961 190.647 603.612 188.724 594.986C187.876 591.181 188.393 587.424 189.922 584.268C190.246 583.601 190.133 582.835 189.697 582.293C189.619 582.032 189.482 581.784 189.286 581.569C182.634 574.326 171.152 573.32 163.785 580.086C156.48 586.796 155.996 598.157 162.706 605.463C165.817 608.851 169.932 610.772 174.175 611.188C174.175 611.189 174.174 611.188 174.175 611.188L199.16 647.5C202.093 651.764 208.748 650.075 209.294 644.929L212.355 616.055C212.463 615.035 211.723 614.12 210.703 614.012C209.683 613.904 208.768 614.643 208.66 615.663L205.599 644.537C205.417 646.253 203.199 646.816 202.221 645.394L177.238 609.085C177.157 608.968 177.065 608.862 176.965 608.77C176.717 608.083 176.074 607.579 175.3 607.545C171.665 607.383 168.097 605.84 165.443 602.95C160.121 597.155 160.504 588.144 166.299 582.823C171.885 577.692 180.706 578.196 186.13 583.644C184.595 587.323 184.152 591.549 185.098 595.794C187.423 606.23 197.372 613.076 207.481 610.823C217.59 608.57 223.69 598.147 221.364 587.711C219.814 580.756 215.237 575.24 209.014 573.116L208.978 572.955L208.971 572.922C206.864 564.228 198.557 558.273 189.446 559.331C184.322 559.927 179.952 562.626 177.102 566.461C176.119 567.783 175.315 569.243 174.723 570.799C174.359 571.758 174.84 572.831 175.799 573.196C176.758 573.561 177.832 573.079 178.196 572.12C178.665 570.886 179.303 569.728 180.084 568.677C182.348 565.631 185.811 563.494 189.875 563.022C197.093 562.184 203.679 566.898 205.356 573.781L205.58 574.785Z" fill="#404040"/>
<g clip-path="url(#clip1_202_63)">
<path fill-rule="evenodd" clip-rule="evenodd" d="M430.718 438.47C427.742 441.958 430.018 447.347 434.593 447.648L500.035 451.945C501.059 452.012 501.944 451.237 502.011 450.213C502.078 449.189 501.303 448.305 500.279 448.237L434.836 443.94C433.311 443.84 432.553 442.044 433.545 440.881L479.314 387.215C480.208 386.168 481.891 386.422 482.435 387.687L507.951 447.054C509.167 449.882 512.445 451.189 515.273 449.974L521.246 447.406C524.074 446.19 525.382 442.913 524.166 440.085L497.099 377.111C496.246 375.127 493.947 374.21 491.962 375.062L485.314 377.92C484.372 378.325 483.936 379.418 484.341 380.36C484.746 381.303 485.839 381.739 486.781 381.334L493.43 378.476C493.529 378.434 493.643 378.479 493.686 378.578L520.752 441.552C521.158 442.494 520.722 443.587 519.779 443.992L513.805 446.56C512.863 446.965 511.77 446.529 511.365 445.587L485.848 386.22C484.217 382.425 479.168 381.661 476.487 384.804L430.718 438.47ZM458.289 427.956C460.174 427.146 462.359 428.018 463.17 429.903C463.98 431.788 463.109 433.973 461.223 434.784C459.338 435.594 457.153 434.723 456.342 432.837C455.532 430.952 456.404 428.767 458.289 427.956ZM483.173 429.394C485.058 428.584 487.243 429.455 488.053 431.34C488.864 433.226 487.992 435.411 486.107 436.221C484.222 437.032 482.036 436.16 481.226 434.275C480.416 432.39 481.287 430.204 483.173 429.394ZM474.369 408.912C476.254 408.102 478.44 408.973 479.25 410.859C480.06 412.744 479.189 414.929 477.304 415.739C475.418 416.55 473.233 415.678 472.423 413.793C471.612 411.908 472.484 409.722 474.369 408.912ZM472.902 405.498C476.673 403.878 481.043 405.621 482.664 409.391C484.284 413.162 482.541 417.532 478.771 419.153C475 420.774 470.63 419.031 469.009 415.26C467.388 411.49 469.131 407.119 472.902 405.498ZM491.467 429.873C489.846 426.103 485.476 424.36 481.705 425.98C477.935 427.601 476.192 431.972 477.812 435.742C479.433 439.513 483.804 441.256 487.574 439.635C491.345 438.014 493.088 433.644 491.467 429.873ZM466.583 428.436C464.963 424.665 460.592 422.922 456.822 424.543C453.051 426.163 451.308 430.534 452.929 434.305C454.549 438.075 458.92 439.818 462.691 438.197C466.461 436.577 468.204 432.206 466.583 428.436Z" fill="#404040"/>
</g>
<path fill-rule="evenodd" clip-rule="evenodd" d="M27.7537 637.144C23.2913 636.09 19.5354 640.574 21.3568 644.782L47.4077 704.969C47.8153 705.911 48.909 706.344 49.8506 705.936C50.7923 705.529 51.2252 704.435 50.8176 703.493L24.7667 643.306C24.1595 641.904 25.4115 640.409 26.899 640.76L95.5401 656.984C96.8803 657.301 97.4221 658.915 96.5447 659.976L55.3731 709.78C53.4119 712.152 53.7452 715.665 56.1176 717.626L61.1292 721.769C63.5016 723.731 67.0148 723.397 68.976 721.025L112.649 668.195C114.025 666.531 113.791 664.066 112.127 662.69L106.549 658.079C105.759 657.425 104.588 657.537 103.934 658.327C103.28 659.118 103.391 660.289 104.182 660.943L109.759 665.554C109.842 665.622 109.854 665.745 109.785 665.828L66.1122 718.657C65.4585 719.448 64.2874 719.559 63.4966 718.906L58.4851 714.763C57.6942 714.109 57.5831 712.938 58.2369 712.147L99.4084 662.344C102.041 659.16 100.415 654.319 96.3948 653.368L27.7537 637.144ZM49.6938 656.876C51.2754 658.183 51.4976 660.525 50.1901 662.107C48.8826 663.689 46.5405 663.911 44.9589 662.603C43.3773 661.296 43.1551 658.954 44.4626 657.372C45.7701 655.791 48.1122 655.568 49.6938 656.876ZM59.7741 679.672C61.3557 680.979 61.5779 683.321 60.2704 684.903C58.9629 686.484 56.6208 686.707 55.0392 685.399C53.4576 684.092 53.2354 681.75 54.5429 680.168C55.8504 678.586 58.1925 678.364 59.7741 679.672ZM73.9786 662.489C75.5602 663.797 75.7824 666.139 74.4749 667.72C73.1675 669.302 70.8254 669.524 69.2438 668.217C67.6621 666.909 67.4399 664.567 68.7474 662.985C70.0549 661.404 72.397 661.182 73.9786 662.489ZM76.346 659.625C79.5092 662.24 79.9537 666.924 77.3387 670.088C74.7237 673.251 70.0396 673.695 66.8763 671.08C63.7131 668.465 63.2687 663.781 65.8837 660.618C68.4986 657.455 73.1828 657.01 76.346 659.625ZM63.1342 687.27C65.7492 684.107 65.3047 679.423 62.1415 676.808C58.9783 674.193 54.2941 674.637 51.6791 677.801C49.0642 680.964 49.5086 685.648 52.6718 688.263C55.835 690.878 60.5192 690.433 63.1342 687.27ZM53.0539 664.474C55.6689 661.311 55.2244 656.627 52.0612 654.012C48.898 651.397 44.2138 651.842 41.5988 655.005C38.9838 658.168 39.4283 662.852 42.5915 665.467C45.7547 668.082 50.4389 667.638 53.0539 664.474Z" fill="#404040"/>
<path fill-rule="evenodd" clip-rule="evenodd" d="M195.445 388.294C195.445 385.216 197.94 382.72 201.018 382.72H204.734C206.161 382.72 207.464 383.257 208.45 384.139C209.436 383.257 210.738 382.72 212.165 382.72H215.881C218.959 382.72 221.454 385.216 221.454 388.294V390.469C222.035 390.263 222.661 390.151 223.312 390.151H227.028C230.106 390.151 232.601 392.647 232.601 395.725V408.73H237.81C241.094 408.73 243.666 411.554 243.359 414.823L238.166 470.211C238.071 471.232 237.165 471.983 236.143 471.887C235.122 471.791 234.371 470.885 234.467 469.864L239.66 414.476C239.762 413.387 238.904 412.445 237.81 412.445H232.468C232.182 413.897 231.447 415.249 230.389 416.449C229.019 418.003 227.094 419.324 224.812 420.388C222.521 421.457 219.848 422.277 216.959 422.82C214.067 423.364 210.99 423.624 207.903 423.589C204.817 423.554 201.766 423.225 198.926 422.616C196.089 422.008 193.489 421.125 191.291 419.999C189.103 418.877 187.284 417.499 186.045 415.885C185.232 414.826 184.672 413.666 184.431 412.445H179.089C177.995 412.445 177.137 413.387 177.24 414.476L182.116 466.495C182.206 467.45 183.007 468.179 183.966 468.179H227.028C228.054 468.179 228.886 469.011 228.886 470.037C228.886 471.063 228.054 471.895 227.028 471.895H183.966C181.089 471.895 178.685 469.706 178.417 466.842L173.54 414.823C173.234 411.554 175.806 408.73 179.089 408.73H184.298V395.725C184.298 392.647 186.793 390.151 189.872 390.151H193.587C194.239 390.151 194.864 390.263 195.445 390.469V388.294ZM188.014 410.282C188.04 410.44 188.046 410.603 188.029 410.77C187.944 411.635 188.202 412.593 188.992 413.622C189.799 414.673 191.122 415.737 192.986 416.692C193.738 417.078 194.56 417.436 195.445 417.763V395.725C195.445 394.699 194.613 393.867 193.587 393.867H189.872C188.845 393.867 188.014 394.699 188.014 395.725V410.282ZM198.979 418.82C199.218 418.876 199.46 418.931 199.705 418.983C201.877 419.449 204.206 419.739 206.592 419.838V388.294C206.592 387.268 205.76 386.436 204.734 386.436H201.018C199.992 386.436 199.161 387.268 199.161 388.294V418.019C199.161 418.305 199.096 418.577 198.979 418.82ZM210.307 419.838C212.354 419.753 214.364 419.527 216.272 419.169C216.771 419.075 217.26 418.972 217.739 418.862V388.294C217.739 387.268 216.907 386.436 215.881 386.436H212.165C211.139 386.436 210.307 387.268 210.307 388.294V419.838ZM221.454 417.763C222.081 417.532 222.678 417.283 223.242 417.021C225.211 416.102 226.666 415.054 227.602 413.992C228.525 412.946 228.883 411.965 228.885 411.098V395.725C228.885 394.699 228.054 393.867 227.028 393.867H223.312C222.286 393.867 221.454 394.699 221.454 395.725V417.763Z" fill="#404040"/>
<path d="M216.316 448.328C218.061 444.613 216.464 440.187 212.749 438.442C209.035 436.697 204.609 438.294 202.864 442.008C201.119 445.723 202.715 450.149 206.43 451.894C207.359 452.33 207.758 453.437 207.322 454.366C206.885 455.294 205.779 455.693 204.85 455.257C199.278 452.64 196.883 446.001 199.501 440.429C202.118 434.857 208.757 432.461 214.329 435.079C219.901 437.697 222.296 444.336 219.679 449.908C218.401 452.628 216.16 454.594 213.558 455.585C212.599 455.95 211.526 455.469 211.161 454.51C210.795 453.551 211.277 452.478 212.236 452.112C213.974 451.45 215.463 450.143 216.316 448.328Z" fill="#404040"/>
<path fill-rule="evenodd" clip-rule="evenodd" d="M388.251 659.515C387.208 656.619 388.711 653.426 391.607 652.384L395.103 651.125C396.446 650.642 397.853 650.706 399.08 651.202C399.709 650.038 400.752 649.092 402.095 648.608L405.591 647.35C408.488 646.307 411.681 647.81 412.723 650.706L413.46 652.753C413.937 652.363 414.487 652.046 415.1 651.825L418.596 650.567C421.493 649.524 424.686 651.027 425.728 653.923L430.132 666.159L435.033 664.395C438.123 663.283 441.5 665.07 442.318 668.249L456.191 722.122C456.447 723.116 455.849 724.129 454.855 724.385C453.862 724.64 452.849 724.042 452.593 723.049L438.72 669.176C438.447 668.116 437.322 667.521 436.292 667.891L431.266 669.7C431.489 671.164 431.255 672.685 430.666 674.172C429.903 676.098 428.539 677.993 426.752 679.767C424.958 681.549 422.721 683.226 420.187 684.715C417.65 686.206 414.843 687.493 411.927 688.505C409.011 689.518 406.029 690.242 403.15 690.63C400.275 691.019 397.53 691.069 395.08 690.754C392.641 690.439 390.464 689.758 388.751 688.66C387.627 687.939 386.708 687.037 386.067 685.97L381.041 687.779C380.012 688.149 379.524 689.326 379.989 690.316L402.195 737.609C402.603 738.477 403.604 738.892 404.506 738.568L445.023 723.983C445.988 723.636 447.053 724.137 447.4 725.102C447.748 726.068 447.247 727.132 446.281 727.48L405.764 742.064C403.058 743.038 400.055 741.792 398.832 739.188L376.626 691.896C375.23 688.923 376.694 685.395 379.783 684.283L384.684 682.519L380.28 670.282C379.237 667.386 380.74 664.193 383.636 663.151L387.132 661.892C387.745 661.672 388.371 661.565 388.988 661.562L388.251 659.515ZM388.706 682.721C388.784 682.861 388.845 683.012 388.886 683.175C389.099 684.018 389.665 684.831 390.758 685.532C391.873 686.248 393.478 686.801 395.555 687.068C396.393 687.176 397.289 687.235 398.232 687.243L390.768 666.507C390.42 665.542 389.356 665.041 388.39 665.388L384.894 666.647C383.929 666.994 383.428 668.059 383.776 669.024L388.706 682.721ZM401.915 687.04C402.159 687.012 402.405 686.982 402.653 686.948C404.855 686.651 407.144 686.135 409.422 685.42L398.739 655.74C398.391 654.775 397.327 654.274 396.362 654.621L392.866 655.88C391.9 656.227 391.399 657.291 391.747 658.257L401.814 686.225C401.911 686.495 401.942 686.773 401.915 687.04ZM412.918 684.162C414.815 683.388 416.63 682.495 418.304 681.512C418.742 681.254 419.167 680.993 419.58 680.727L409.227 651.965C408.88 650.999 407.815 650.498 406.85 650.846L403.354 652.104C402.388 652.452 401.888 653.516 402.235 654.482L412.918 684.162ZM422.704 678.435C423.216 678.004 423.693 677.568 424.134 677.13C425.676 675.599 426.69 674.12 427.211 672.804C427.725 671.507 427.73 670.463 427.439 669.647L422.232 655.182C421.884 654.216 420.82 653.715 419.855 654.063L416.359 655.321C415.393 655.669 414.892 656.733 415.24 657.698L422.704 678.435Z" fill="#404040"/>
<path d="M428.221 708.933C428.604 704.847 425.603 701.223 421.517 700.839C417.431 700.455 413.807 703.457 413.423 707.543C413.039 711.629 416.041 715.253 420.127 715.637C421.149 715.733 421.899 716.638 421.803 717.66C421.707 718.682 420.801 719.432 419.78 719.336C413.65 718.76 409.148 713.325 409.724 707.196C410.3 701.066 415.735 696.564 421.864 697.14C427.994 697.716 432.496 703.151 431.92 709.28C431.639 712.273 430.196 714.881 428.084 716.695C427.305 717.363 426.132 717.274 425.464 716.495C424.795 715.717 424.885 714.544 425.663 713.876C427.075 712.664 428.033 710.929 428.221 708.933Z" fill="#404040"/>
<mask id="path-10-inside-1_202_63" fill="white">
<path d="M339.427 328.631C338.647 327.965 338.555 326.792 339.221 326.012L341.634 323.187C342.301 322.407 343.473 322.314 344.254 322.981C345.034 323.647 345.126 324.82 344.46 325.6L342.046 328.425C341.38 329.206 340.207 329.298 339.427 328.631Z"/>
<path d="M330.265 335.342C329.598 336.122 329.69 337.295 330.471 337.961C331.251 338.628 332.423 338.535 333.09 337.755L335.503 334.93C336.169 334.15 336.077 332.977 335.297 332.311C334.517 331.644 333.344 331.736 332.678 332.517L330.265 335.342Z"/>
<path d="M341.668 338.172C341.002 338.952 341.094 340.125 341.874 340.791C342.655 341.458 343.827 341.365 344.494 340.585L346.907 337.76C347.573 336.98 347.481 335.807 346.701 335.141C345.921 334.474 344.748 334.567 344.082 335.347L341.668 338.172Z"/>
<path d="M351.907 326.185C351.24 326.965 351.333 328.138 352.113 328.805C352.893 329.471 354.066 329.379 354.732 328.599L357.145 325.773C357.812 324.993 357.719 323.82 356.939 323.154C356.159 322.488 354.986 322.58 354.32 323.36L351.907 326.185Z"/>
<path d="M363.517 331.635C362.737 330.968 362.644 329.796 363.311 329.015L365.724 326.19C366.39 325.41 367.563 325.318 368.343 325.984C369.123 326.65 369.216 327.823 368.549 328.603L366.136 331.429C365.47 332.209 364.297 332.301 363.517 331.635Z"/>
<path d="M371.302 335.841C370.635 336.621 370.728 337.794 371.508 338.46C372.288 339.127 373.461 339.034 374.127 338.254L376.54 335.429C377.207 334.649 377.114 333.476 376.334 332.81C375.554 332.143 374.381 332.235 373.715 333.016L371.302 335.841Z"/>
<path d="M355.297 340.854C354.517 340.187 354.425 339.014 355.091 338.234L357.504 335.409C358.17 334.629 359.343 334.537 360.123 335.203C360.904 335.869 360.996 337.042 360.329 337.822L357.916 340.647C357.25 341.428 356.077 341.52 355.297 340.854Z"/>
<path fill-rule="evenodd" clip-rule="evenodd" d="M320.112 350.372C316.015 350.609 312.406 347.426 313.278 343.416C313.688 341.528 314.297 339.664 315.102 337.843C316.945 333.673 319.778 329.816 323.438 326.494C327.098 323.172 331.514 320.45 336.433 318.482C341.352 316.514 346.679 315.34 352.108 315.026C357.538 314.712 362.964 315.264 368.077 316.652C373.19 318.04 377.89 320.235 381.909 323.113C385.928 325.992 389.186 329.496 391.498 333.426C391.865 334.05 392.207 334.683 392.524 335.324C395.253 340.842 390.401 346.308 384.255 346.663L320.112 350.372ZM316.909 344.205C317.264 342.567 317.795 340.942 318.5 339.346C320.117 335.688 322.627 332.248 325.935 329.246C329.245 326.242 333.275 323.747 337.813 321.932C342.35 320.117 347.282 319.027 352.323 318.735C357.363 318.444 362.388 318.958 367.104 320.238C371.821 321.518 376.112 323.532 379.746 326.134C383.378 328.736 386.268 331.864 388.295 335.31C388.617 335.857 388.916 336.411 389.193 336.971C389.857 338.314 389.648 339.542 388.789 340.643C387.849 341.847 386.117 342.834 384.041 342.954L319.898 346.663C318.847 346.723 317.949 346.335 317.42 345.821C316.945 345.36 316.771 344.837 316.909 344.205Z"/>
<path d="M322.216 387.183C318.125 387.505 315.069 391.083 315.391 395.174C315.712 399.266 319.29 402.321 323.382 402L377.092 397.775C378.115 397.694 378.879 396.8 378.799 395.777C378.718 394.754 377.824 393.99 376.801 394.07L323.09 398.295C321.045 398.456 319.256 396.928 319.095 394.883C318.934 392.837 320.462 391.048 322.508 390.887L392.887 385.351C394.933 385.19 396.722 386.718 396.882 388.764C397.043 390.809 395.515 392.598 393.47 392.759L386.061 393.342C385.038 393.422 384.274 394.317 384.355 395.34C384.435 396.363 385.33 397.127 386.353 397.046L393.761 396.463C397.853 396.141 400.909 392.564 400.587 388.472C400.265 384.381 396.687 381.325 392.596 381.647L322.216 387.183Z"/>
<path d="M315.467 356.518C316.687 357.464 317.647 357.726 318.403 357.666C319.16 357.607 320.067 357.198 321.124 356.073C322.589 354.515 324.301 353.475 326.261 353.321C328.222 353.167 330.075 353.926 331.765 355.236C332.985 356.182 333.946 356.443 334.702 356.384C335.458 356.325 336.366 355.916 337.423 354.791C338.888 353.233 340.599 352.193 342.56 352.039C344.52 351.885 346.373 352.644 348.064 353.954C349.284 354.9 350.244 355.161 351 355.102C351.756 355.042 352.664 354.634 353.721 353.509C355.186 351.951 356.898 350.911 358.858 350.757C360.818 350.602 362.672 351.362 364.362 352.672C365.582 353.618 366.542 353.879 367.299 353.82C368.055 353.76 368.962 353.352 370.02 352.227C371.484 350.669 373.196 349.629 375.156 349.475C377.117 349.32 378.97 350.08 380.66 351.39C381.881 352.335 382.841 352.597 383.597 352.538C384.353 352.478 385.261 352.07 386.318 350.945C387.783 349.386 389.495 348.347 391.455 348.193C393.415 348.038 395.268 348.798 396.959 350.108C397.77 350.736 397.918 351.903 397.289 352.714C396.661 353.525 395.494 353.673 394.683 353.045C393.463 352.099 392.502 351.837 391.746 351.897C390.99 351.956 390.083 352.365 389.025 353.49C387.56 355.048 385.849 356.088 383.888 356.242C381.928 356.396 380.075 355.637 378.384 354.327C377.164 353.381 376.204 353.119 375.448 353.179C374.692 353.238 373.784 353.647 372.727 354.772C371.262 356.33 369.55 357.37 367.59 357.524C365.63 357.678 363.776 356.919 362.086 355.609C360.866 354.663 359.906 354.401 359.149 354.461C358.393 354.52 357.486 354.929 356.428 356.054C354.964 357.612 353.252 358.652 351.292 358.806C349.331 358.96 347.478 358.201 345.788 356.891C344.567 355.945 343.607 355.683 342.851 355.743C342.095 355.802 341.187 356.211 340.13 357.336C338.665 358.894 336.954 359.934 334.993 360.088C333.033 360.242 331.18 359.483 329.489 358.173C328.269 357.227 327.309 356.966 326.553 357.025C325.797 357.085 324.889 357.493 323.832 358.618C322.367 360.176 320.655 361.216 318.695 361.37C316.735 361.524 314.881 360.765 313.191 359.455C312.38 358.827 312.232 357.66 312.86 356.849C313.489 356.038 314.656 355.89 315.467 356.518Z"/>
<path d="M320.905 370.514C320.825 369.491 321.589 368.597 322.611 368.516L392.991 362.98C394.014 362.9 394.778 362.005 394.697 360.982C394.617 359.959 393.722 359.195 392.699 359.276L322.32 364.812C319.251 365.054 316.959 367.737 317.201 370.806C317.442 373.874 320.126 376.166 323.194 375.925L389.869 370.68C390.892 370.599 391.787 371.363 391.867 372.386C391.948 373.409 391.184 374.304 390.161 374.384L319.781 379.92C318.758 380.001 317.995 380.895 318.075 381.918C318.155 382.941 319.05 383.705 320.073 383.624L390.452 378.088C393.521 377.847 395.813 375.163 395.571 372.095C395.33 369.026 392.647 366.734 389.578 366.976L322.903 372.221C321.88 372.301 320.985 371.537 320.905 370.514Z"/>
</mask>
<path d="M339.427 328.631C338.647 327.965 338.555 326.792 339.221 326.012L341.634 323.187C342.301 322.407 343.473 322.314 344.254 322.981C345.034 323.647 345.126 324.82 344.46 325.6L342.046 328.425C341.38 329.206 340.207 329.298 339.427 328.631Z" fill="#404040"/>
<path d="M330.265 335.342C329.598 336.122 329.69 337.295 330.471 337.961C331.251 338.628 332.423 338.535 333.09 337.755L335.503 334.93C336.169 334.15 336.077 332.977 335.297 332.311C334.517 331.644 333.344 331.736 332.678 332.517L330.265 335.342Z" fill="#404040"/>
<path d="M341.668 338.172C341.002 338.952 341.094 340.125 341.874 340.791C342.655 341.458 343.827 341.365 344.494 340.585L346.907 337.76C347.573 336.98 347.481 335.807 346.701 335.141C345.921 334.474 344.748 334.567 344.082 335.347L341.668 338.172Z" fill="#404040"/>
<path d="M351.907 326.185C351.24 326.965 351.333 328.138 352.113 328.805C352.893 329.471 354.066 329.379 354.732 328.599L357.145 325.773C357.812 324.993 357.719 323.82 356.939 323.154C356.159 322.488 354.986 322.58 354.32 323.36L351.907 326.185Z" fill="#404040"/>
<path d="M363.517 331.635C362.737 330.968 362.644 329.796 363.311 329.015L365.724 326.19C366.39 325.41 367.563 325.318 368.343 325.984C369.123 326.65 369.216 327.823 368.549 328.603L366.136 331.429C365.47 332.209 364.297 332.301 363.517 331.635Z" fill="#404040"/>
<path d="M371.302 335.841C370.635 336.621 370.728 337.794 371.508 338.46C372.288 339.127 373.461 339.034 374.127 338.254L376.54 335.429C377.207 334.649 377.114 333.476 376.334 332.81C375.554 332.143 374.381 332.235 373.715 333.016L371.302 335.841Z" fill="#404040"/>
<path d="M355.297 340.854C354.517 340.187 354.425 339.014 355.091 338.234L357.504 335.409C358.17 334.629 359.343 334.537 360.123 335.203C360.904 335.869 360.996 337.042 360.329 337.822L357.916 340.647C357.25 341.428 356.077 341.52 355.297 340.854Z" fill="#404040"/>
<path fill-rule="evenodd" clip-rule="evenodd" d="M320.112 350.372C316.015 350.609 312.406 347.426 313.278 343.416C313.688 341.528 314.297 339.664 315.102 337.843C316.945 333.673 319.778 329.816 323.438 326.494C327.098 323.172 331.514 320.45 336.433 318.482C341.352 316.514 346.679 315.34 352.108 315.026C357.538 314.712 362.964 315.264 368.077 316.652C373.19 318.04 377.89 320.235 381.909 323.113C385.928 325.992 389.186 329.496 391.498 333.426C391.865 334.05 392.207 334.683 392.524 335.324C395.253 340.842 390.401 346.308 384.255 346.663L320.112 350.372ZM316.909 344.205C317.264 342.567 317.795 340.942 318.5 339.346C320.117 335.688 322.627 332.248 325.935 329.246C329.245 326.242 333.275 323.747 337.813 321.932C342.35 320.117 347.282 319.027 352.323 318.735C357.363 318.444 362.388 318.958 367.104 320.238C371.821 321.518 376.112 323.532 379.746 326.134C383.378 328.736 386.268 331.864 388.295 335.31C388.617 335.857 388.916 336.411 389.193 336.971C389.857 338.314 389.648 339.542 388.789 340.643C387.849 341.847 386.117 342.834 384.041 342.954L319.898 346.663C318.847 346.723 317.949 346.335 317.42 345.821C316.945 345.36 316.771 344.837 316.909 344.205Z" fill="#404040"/>
<path d="M322.216 387.183C318.125 387.505 315.069 391.083 315.391 395.174C315.712 399.266 319.29 402.321 323.382 402L377.092 397.775C378.115 397.694 378.879 396.8 378.799 395.777C378.718 394.754 377.824 393.99 376.801 394.07L323.09 398.295C321.045 398.456 319.256 396.928 319.095 394.883C318.934 392.837 320.462 391.048 322.508 390.887L392.887 385.351C394.933 385.19 396.722 386.718 396.882 388.764C397.043 390.809 395.515 392.598 393.47 392.759L386.061 393.342C385.038 393.422 384.274 394.317 384.355 395.34C384.435 396.363 385.33 397.127 386.353 397.046L393.761 396.463C397.853 396.141 400.909 392.564 400.587 388.472C400.265 384.381 396.687 381.325 392.596 381.647L322.216 387.183Z" fill="#404040"/>
<path d="M315.467 356.518C316.687 357.464 317.647 357.726 318.403 357.666C319.16 357.607 320.067 357.198 321.124 356.073C322.589 354.515 324.301 353.475 326.261 353.321C328.222 353.167 330.075 353.926 331.765 355.236C332.985 356.182 333.946 356.443 334.702 356.384C335.458 356.325 336.366 355.916 337.423 354.791C338.888 353.233 340.599 352.193 342.56 352.039C344.52 351.885 346.373 352.644 348.064 353.954C349.284 354.9 350.244 355.161 351 355.102C351.756 355.042 352.664 354.634 353.721 353.509C355.186 351.951 356.898 350.911 358.858 350.757C360.818 350.602 362.672 351.362 364.362 352.672C365.582 353.618 366.542 353.879 367.299 353.82C368.055 353.76 368.962 353.352 370.02 352.227C371.484 350.669 373.196 349.629 375.156 349.475C377.117 349.32 378.97 350.08 380.66 351.39C381.881 352.335 382.841 352.597 383.597 352.538C384.353 352.478 385.261 352.07 386.318 350.945C387.783 349.386 389.495 348.347 391.455 348.193C393.415 348.038 395.268 348.798 396.959 350.108C397.77 350.736 397.918 351.903 397.289 352.714C396.661 353.525 395.494 353.673 394.683 353.045C393.463 352.099 392.502 351.837 391.746 351.897C390.99 351.956 390.083 352.365 389.025 353.49C387.56 355.048 385.849 356.088 383.888 356.242C381.928 356.396 380.075 355.637 378.384 354.327C377.164 353.381 376.204 353.119 375.448 353.179C374.692 353.238 373.784 353.647 372.727 354.772C371.262 356.33 369.55 357.37 367.59 357.524C365.63 357.678 363.776 356.919 362.086 355.609C360.866 354.663 359.906 354.401 359.149 354.461C358.393 354.52 357.486 354.929 356.428 356.054C354.964 357.612 353.252 358.652 351.292 358.806C349.331 358.96 347.478 358.201 345.788 356.891C344.567 355.945 343.607 355.683 342.851 355.743C342.095 355.802 341.187 356.211 340.13 357.336C338.665 358.894 336.954 359.934 334.993 360.088C333.033 360.242 331.18 359.483 329.489 358.173C328.269 357.227 327.309 356.966 326.553 357.025C325.797 357.085 324.889 357.493 323.832 358.618C322.367 360.176 320.655 361.216 318.695 361.37C316.735 361.524 314.881 360.765 313.191 359.455C312.38 358.827 312.232 357.66 312.86 356.849C313.489 356.038 314.656 355.89 315.467 356.518Z" fill="#404040"/>
<path d="M320.905 370.514C320.825 369.491 321.589 368.597 322.611 368.516L392.991 362.98C394.014 362.9 394.778 362.005 394.697 360.982C394.617 359.959 393.722 359.195 392.699 359.276L322.32 364.812C319.251 365.054 316.959 367.737 317.201 370.806C317.442 373.874 320.126 376.166 323.194 375.925L389.869 370.68C390.892 370.599 391.787 371.363 391.867 372.386C391.948 373.409 391.184 374.304 390.161 374.384L319.781 379.92C318.758 380.001 317.995 380.895 318.075 381.918C318.155 382.941 319.05 383.705 320.073 383.624L390.452 378.088C393.521 377.847 395.813 375.163 395.571 372.095C395.33 369.026 392.647 366.734 389.578 366.976L322.903 372.221C321.88 372.301 320.985 371.537 320.905 370.514Z" fill="#404040"/>
<path d="M339.427 328.631C338.647 327.965 338.555 326.792 339.221 326.012L341.634 323.187C342.301 322.407 343.473 322.314 344.254 322.981C345.034 323.647 345.126 324.82 344.46 325.6L342.046 328.425C341.38 329.206 340.207 329.298 339.427 328.631Z" stroke="#404040" stroke-width="7.43124" mask="url(#path-10-inside-1_202_63)"/>
<path d="M330.265 335.342C329.598 336.122 329.69 337.295 330.471 337.961C331.251 338.628 332.423 338.535 333.09 337.755L335.503 334.93C336.169 334.15 336.077 332.977 335.297 332.311C334.517 331.644 333.344 331.736 332.678 332.517L330.265 335.342Z" stroke="#404040" stroke-width="7.43124" mask="url(#path-10-inside-1_202_63)"/>
<path d="M341.668 338.172C341.002 338.952 341.094 340.125 341.874 340.791C342.655 341.458 343.827 341.365 344.494 340.585L346.907 337.76C347.573 336.98 347.481 335.807 346.701 335.141C345.921 334.474 344.748 334.567 344.082 335.347L341.668 338.172Z" stroke="#404040" stroke-width="7.43124" mask="url(#path-10-inside-1_202_63)"/>
<path d="M351.907 326.185C351.24 326.965 351.333 328.138 352.113 328.805C352.893 329.471 354.066 329.379 354.732 328.599L357.145 325.773C357.812 324.993 357.719 323.82 356.939 323.154C356.159 322.488 354.986 322.58 354.32 323.36L351.907 326.185Z" stroke="#404040" stroke-width="7.43124" mask="url(#path-10-inside-1_202_63)"/>
<path d="M363.517 331.635C362.737 330.968 362.644 329.796 363.311 329.015L365.724 326.19C366.39 325.41 367.563 325.318 368.343 325.984C369.123 326.65 369.216 327.823 368.549 328.603L366.136 331.429C365.47 332.209 364.297 332.301 363.517 331.635Z" stroke="#404040" stroke-width="7.43124" mask="url(#path-10-inside-1_202_63)"/>
<path d="M371.302 335.841C370.635 336.621 370.728 337.794 371.508 338.46C372.288 339.127 373.461 339.034 374.127 338.254L376.54 335.429C377.207 334.649 377.114 333.476 376.334 332.81C375.554 332.143 374.381 332.235 373.715 333.016L371.302 335.841Z" stroke="#404040" stroke-width="7.43124" mask="url(#path-10-inside-1_202_63)"/>
<path d="M355.297 340.854C354.517 340.187 354.425 339.014 355.091 338.234L357.504 335.409C358.17 334.629 359.343 334.537 360.123 335.203C360.904 335.869 360.996 337.042 360.329 337.822L357.916 340.647C357.25 341.428 356.077 341.52 355.297 340.854Z" stroke="#404040" stroke-width="7.43124" mask="url(#path-10-inside-1_202_63)"/>
<path fill-rule="evenodd" clip-rule="evenodd" d="M320.112 350.372C316.015 350.609 312.406 347.426 313.278 343.416C313.688 341.528 314.297 339.664 315.102 337.843C316.945 333.673 319.778 329.816 323.438 326.494C327.098 323.172 331.514 320.45 336.433 318.482C341.352 316.514 346.679 315.34 352.108 315.026C357.538 314.712 362.964 315.264 368.077 316.652C373.19 318.04 377.89 320.235 381.909 323.113C385.928 325.992 389.186 329.496 391.498 333.426C391.865 334.05 392.207 334.683 392.524 335.324C395.253 340.842 390.401 346.308 384.255 346.663L320.112 350.372ZM316.909 344.205C317.264 342.567 317.795 340.942 318.5 339.346C320.117 335.688 322.627 332.248 325.935 329.246C329.245 326.242 333.275 323.747 337.813 321.932C342.35 320.117 347.282 319.027 352.323 318.735C357.363 318.444 362.388 318.958 367.104 320.238C371.821 321.518 376.112 323.532 379.746 326.134C383.378 328.736 386.268 331.864 388.295 335.31C388.617 335.857 388.916 336.411 389.193 336.971C389.857 338.314 389.648 339.542 388.789 340.643C387.849 341.847 386.117 342.834 384.041 342.954L319.898 346.663C318.847 346.723 317.949 346.335 317.42 345.821C316.945 345.36 316.771 344.837 316.909 344.205Z" stroke="#404040" stroke-width="7.43124" mask="url(#path-10-inside-1_202_63)"/>
<path d="M322.216 387.183C318.125 387.505 315.069 391.083 315.391 395.174C315.712 399.266 319.29 402.321 323.382 402L377.092 397.775C378.115 397.694 378.879 396.8 378.799 395.777C378.718 394.754 377.824 393.99 376.801 394.07L323.09 398.295C321.045 398.456 319.256 396.928 319.095 394.883C318.934 392.837 320.462 391.048 322.508 390.887L392.887 385.351C394.933 385.19 396.722 386.718 396.882 388.764C397.043 390.809 395.515 392.598 393.47 392.759L386.061 393.342C385.038 393.422 384.274 394.317 384.355 395.34C384.435 396.363 385.33 397.127 386.353 397.046L393.761 396.463C397.853 396.141 400.909 392.564 400.587 388.472C400.265 384.381 396.687 381.325 392.596 381.647L322.216 387.183Z" stroke="#404040" stroke-width="7.43124" mask="url(#path-10-inside-1_202_63)"/>
<path d="M315.467 356.518C316.687 357.464 317.647 357.726 318.403 357.666C319.16 357.607 320.067 357.198 321.124 356.073C322.589 354.515 324.301 353.475 326.261 353.321C328.222 353.167 330.075 353.926 331.765 355.236C332.985 356.182 333.946 356.443 334.702 356.384C335.458 356.325 336.366 355.916 337.423 354.791C338.888 353.233 340.599 352.193 342.56 352.039C344.52 351.885 346.373 352.644 348.064 353.954C349.284 354.9 350.244 355.161 351 355.102C351.756 355.042 352.664 354.634 353.721 353.509C355.186 351.951 356.898 350.911 358.858 350.757C360.818 350.602 362.672 351.362 364.362 352.672C365.582 353.618 366.542 353.879 367.299 353.82C368.055 353.76 368.962 353.352 370.02 352.227C371.484 350.669 373.196 349.629 375.156 349.475C377.117 349.32 378.97 350.08 380.66 351.39C381.881 352.335 382.841 352.597 383.597 352.538C384.353 352.478 385.261 352.07 386.318 350.945C387.783 349.386 389.495 348.347 391.455 348.193C393.415 348.038 395.268 348.798 396.959 350.108C397.77 350.736 397.918 351.903 397.289 352.714C396.661 353.525 395.494 353.673 394.683 353.045C393.463 352.099 392.502 351.837 391.746 351.897C390.99 351.956 390.083 352.365 389.025 353.49C387.56 355.048 385.849 356.088 383.888 356.242C381.928 356.396 380.075 355.637 378.384 354.327C377.164 353.381 376.204 353.119 375.448 353.179C374.692 353.238 373.784 353.647 372.727 354.772C371.262 356.33 369.55 357.37 367.59 357.524C365.63 357.678 363.776 356.919 362.086 355.609C360.866 354.663 359.906 354.401 359.149 354.461C358.393 354.52 357.486 354.929 356.428 356.054C354.964 357.612 353.252 358.652 351.292 358.806C349.331 358.96 347.478 358.201 345.788 356.891C344.567 355.945 343.607 355.683 342.851 355.743C342.095 355.802 341.187 356.211 340.13 357.336C338.665 358.894 336.954 359.934 334.993 360.088C333.033 360.242 331.18 359.483 329.489 358.173C328.269 357.227 327.309 356.966 326.553 357.025C325.797 357.085 324.889 357.493 323.832 358.618C322.367 360.176 320.655 361.216 318.695 361.37C316.735 361.524 314.881 360.765 313.191 359.455C312.38 358.827 312.232 357.66 312.86 356.849C313.489 356.038 314.656 355.89 315.467 356.518Z" stroke="#404040" stroke-width="7.43124" mask="url(#path-10-inside-1_202_63)"/>
<path d="M320.905 370.514C320.825 369.491 321.589 368.597 322.611 368.516L392.991 362.98C394.014 362.9 394.778 362.005 394.697 360.982C394.617 359.959 393.722 359.195 392.699 359.276L322.32 364.812C319.251 365.054 316.959 367.737 317.201 370.806C317.442 373.874 320.126 376.166 323.194 375.925L389.869 370.68C390.892 370.599 391.787 371.363 391.867 372.386C391.948 373.409 391.184 374.304 390.161 374.384L319.781 379.92C318.758 380.001 317.995 380.895 318.075 381.918C318.155 382.941 319.05 383.705 320.073 383.624L390.452 378.088C393.521 377.847 395.813 375.163 395.571 372.095C395.33 369.026 392.647 366.734 389.578 366.976L322.903 372.221C321.88 372.301 320.985 371.537 320.905 370.514Z" stroke="#404040" stroke-width="7.43124" mask="url(#path-10-inside-1_202_63)"/>
<path fill-rule="evenodd" clip-rule="evenodd" d="M513.492 185.913C508.161 182.835 501.344 184.662 498.266 189.993L459.247 257.575C456.171 262.903 457.997 269.714 463.324 272.79C468.658 275.87 475.48 274.035 478.549 268.694L497.329 236.015C497.84 235.126 497.534 233.99 496.644 233.479C495.754 232.968 494.619 233.274 494.107 234.164L475.327 266.842C473.282 270.401 468.736 271.624 465.181 269.572C461.631 267.522 460.415 262.983 462.465 259.433L501.483 191.851C503.535 188.297 508.08 187.079 511.635 189.131C515.189 191.183 516.407 195.728 514.355 199.282L502.843 219.22L499.56 224.908C499.047 225.797 499.351 226.933 500.24 227.446C501.128 227.959 502.264 227.654 502.777 226.766L506.061 221.078L517.572 201.14C520.651 195.809 518.824 188.991 513.492 185.913ZM484.823 196.949L458.509 243.201C457.473 245.021 455.318 245.886 453.312 245.286C450.546 244.46 449.264 241.28 450.682 238.766L463.839 215.445L476.829 192.42C478.296 189.819 481.816 189.287 483.986 191.339C485.524 192.793 485.869 195.109 484.823 196.949ZM488.052 198.786L461.739 245.038C459.847 248.362 455.912 249.941 452.248 248.846C447.198 247.338 444.856 241.531 447.446 236.941L460.603 213.619L473.592 190.594C476.246 185.889 482.613 184.928 486.538 188.639C489.32 191.269 489.945 195.459 488.052 198.786ZM499.44 266.832L525.754 220.58C526.8 218.741 526.454 216.424 524.916 214.97C522.746 212.919 519.227 213.45 517.759 216.051L504.77 239.076L491.613 262.398C490.194 264.912 491.477 268.092 494.242 268.918C496.249 269.518 498.404 268.653 499.44 266.832ZM502.669 268.67L528.983 222.418C530.876 219.09 530.251 214.9 527.469 212.27C523.544 208.559 517.177 209.521 514.523 214.226L501.533 237.25L488.376 260.572C485.787 265.162 488.129 270.969 493.178 272.478C496.843 273.573 500.778 271.994 502.669 268.67ZM470.736 256.721C474.56 254.428 476.449 251.158 476.522 246.699C476.617 240.958 479.187 236.505 484.113 233.553C487.937 231.26 489.825 227.989 489.898 223.531C489.993 217.789 492.564 213.337 497.489 210.384C501.313 208.091 503.201 204.821 503.275 200.363C503.292 199.337 504.137 198.519 505.163 198.536C506.189 198.553 507.007 199.398 506.99 200.424C506.895 206.166 504.324 210.618 499.399 213.571C495.575 215.864 493.687 219.134 493.614 223.592C493.519 229.334 490.948 233.786 486.023 236.739C482.199 239.032 480.311 242.303 480.237 246.761C480.143 252.502 477.572 256.955 472.647 259.908C471.767 260.435 470.626 260.15 470.098 259.27C469.571 258.39 469.856 257.248 470.736 256.721Z" fill="#404040"/>
<defs>
<clipPath id="clip0_202_63">
<rect width="118.9" height="118.9" fill="white" transform="translate(297.096 163.511) rotate(-21.9349)"/>
</clipPath>
<clipPath id="clip1_202_63">
<rect width="118.9" height="118.9" fill="white" transform="translate(447.043 345) rotate(21.7414)"/>
</clipPath>
</defs>
</svg>
