<svg width="120" height="120" viewBox="0 0 120 120" fill="none" xmlns="http://www.w3.org/2000/svg">
<mask id="path-1-inside-1_203_47" fill="white">
<path d="M46.38 34.4902C45.6545 33.7647 45.6545 32.5884 46.38 31.8629L49.0074 29.2356C49.7329 28.51 50.9092 28.51 51.6347 29.2356C52.3602 29.9611 52.3602 31.1374 51.6347 31.8629L49.0074 34.4902C48.2819 35.2158 47.1055 35.2158 46.38 34.4902Z"/>
<path d="M36.7194 40.4616C35.9939 41.1871 35.9939 42.3634 36.7194 43.089C37.4449 43.8145 38.6212 43.8145 39.3467 43.089L41.9741 40.4616C42.6996 39.7361 42.6996 38.5598 41.9741 37.8343C41.2486 37.1088 40.0723 37.1088 39.3467 37.8343L36.7194 40.4616Z"/>
<path d="M47.8663 44.1772C47.1407 44.9028 47.1407 46.0791 47.8663 46.8046C48.5918 47.5301 49.7681 47.5301 50.4936 46.8046L53.1209 44.1772C53.8465 43.4517 53.8465 42.2754 53.1209 41.5499C52.3954 40.8244 51.2191 40.8244 50.4936 41.5499L47.8663 44.1772Z"/>
<path d="M59.0131 33.0304C58.2876 33.7559 58.2876 34.9322 59.0131 35.6577C59.7386 36.3832 60.9149 36.3832 61.6404 35.6577L64.2678 33.0304C64.9933 32.3049 64.9933 31.1286 64.2678 30.403C63.5423 29.6775 62.366 29.6775 61.6404 30.403L59.0131 33.0304Z"/>
<path d="M70.16 39.3733C69.4344 38.6478 69.4344 37.4715 70.16 36.746L72.7873 34.1187C73.5128 33.3931 74.6891 33.3931 75.4146 34.1187C76.1402 34.8442 76.1402 36.0205 75.4146 36.746L72.7873 39.3733C72.0618 40.0989 70.8855 40.0989 70.16 39.3733Z"/>
<path d="M77.5912 44.1772C76.8657 44.9028 76.8657 46.0791 77.5912 46.8046C78.3167 47.5301 79.493 47.5301 80.2185 46.8046L82.8459 44.1772C83.5714 43.4517 83.5714 42.2754 82.8459 41.5499C82.1204 40.8244 80.9441 40.8244 80.2185 41.5499L77.5912 44.1772Z"/>
<path d="M61.2425 47.9193C60.517 47.1938 60.517 46.0175 61.2425 45.292L63.8698 42.6646C64.5954 41.9391 65.7717 41.9391 66.4972 42.6646C67.2227 43.3901 67.2227 44.5664 66.4972 45.292L63.8698 47.9193C63.1443 48.6448 61.968 48.6448 61.2425 47.9193Z"/>
<path fill-rule="evenodd" clip-rule="evenodd" d="M25.4196 54.6494C21.3163 54.5643 17.9685 51.1084 19.1517 47.1785C19.7087 45.3286 20.4624 43.5177 21.4072 41.7662C23.5722 37.7531 26.6986 34.1307 30.6078 31.1059C34.5171 28.0811 39.1327 25.7131 44.1911 24.1372C49.2494 22.5612 54.6516 21.8081 60.089 21.9209C65.5264 22.0338 70.8927 23.0103 75.8813 24.7947C80.87 26.5791 85.3834 29.1365 89.1638 32.3208C92.9442 35.5052 95.9176 39.2541 97.9143 43.3536C98.2314 44.0046 98.5228 44.6624 98.7884 45.326C101.076 51.0414 95.8111 56.1099 89.6562 55.9822L25.4196 54.6494ZM22.7096 48.2497C23.1926 46.6454 23.8488 45.0662 24.6774 43.5304C26.5758 40.0113 29.348 36.7787 32.8816 34.0445C36.4163 31.3096 40.63 29.1384 45.2963 27.6846C49.962 26.231 54.9643 25.531 60.0119 25.6358C65.0595 25.7405 70.0285 26.6473 74.6299 28.2932C79.2319 29.9393 83.3519 32.2834 86.7701 35.1626C90.1873 38.041 92.823 41.3858 94.5738 44.9806C94.8519 45.5515 95.1069 46.1272 95.3388 46.7066C95.8956 48.0977 95.5908 49.3061 94.6477 50.3361C93.6161 51.4629 91.8119 52.3105 89.7333 52.2674L25.4967 50.9346C24.4446 50.9127 23.5802 50.4551 23.0926 49.9011C22.6551 49.404 22.5231 48.8691 22.7096 48.2497Z"/>
<path d="M24.6305 91.5118C20.5263 91.5118 17.1992 94.8389 17.1992 98.943C17.1992 103.047 20.5263 106.374 24.6305 106.374H78.5069C79.533 106.374 80.3647 105.542 80.3647 104.516C80.3647 103.49 79.533 102.659 78.5069 102.659H24.6305C22.5784 102.659 20.9148 100.995 20.9148 98.943C20.9148 96.8909 22.5784 95.2274 24.6305 95.2274H95.2272C97.2793 95.2274 98.9428 96.8909 98.9428 98.943C98.9428 100.995 97.2793 102.659 95.2272 102.659H87.796C86.7699 102.659 85.9382 103.49 85.9382 104.516C85.9382 105.542 86.7699 106.374 87.796 106.374H95.2272C99.3314 106.374 102.658 103.047 102.658 98.943C102.658 94.8389 99.3314 91.5118 95.2272 91.5118H24.6305Z"/>
<path d="M20.3067 60.4122C21.449 61.4506 22.3858 61.7868 23.1442 61.7868C23.9027 61.7868 24.8395 61.4506 25.9817 60.4122C27.5642 58.9735 29.3523 58.0712 31.3186 58.0712C33.2849 58.0712 35.0729 58.9735 36.6555 60.4122C37.7977 61.4506 38.7345 61.7868 39.4929 61.7868C40.2514 61.7868 41.1882 61.4506 42.3304 60.4122C43.913 58.9735 45.701 58.0712 47.6673 58.0712C49.6336 58.0712 51.4216 58.9735 53.0042 60.4122C54.1464 61.4506 55.0832 61.7868 55.8417 61.7868C56.6001 61.7868 57.5369 61.4506 58.6791 60.4122C60.2617 58.9735 62.0497 58.0712 64.016 58.0712C65.9823 58.0712 67.7704 58.9735 69.3529 60.4122C70.4952 61.4506 71.4319 61.7868 72.1904 61.7868C72.9489 61.7868 73.8856 61.4506 75.0279 60.4122C76.6104 58.9735 78.3984 58.0712 80.3647 58.0712C82.3311 58.0712 84.1191 58.9735 85.7016 60.4122C86.8439 61.4506 87.7806 61.7868 88.5391 61.7868C89.2976 61.7868 90.2343 61.4506 91.3766 60.4122C92.9591 58.9735 94.7471 58.0712 96.7135 58.0712C98.6798 58.0712 100.468 58.9735 102.05 60.4122C102.81 61.1024 102.866 62.2773 102.175 63.0365C101.485 63.7957 100.31 63.8517 99.5509 63.1615C98.4087 62.1231 97.4719 61.7868 96.7135 61.7868C95.955 61.7868 95.0182 62.1231 93.876 63.1615C92.2934 64.6002 90.5054 65.5024 88.5391 65.5024C86.5728 65.5024 84.7848 64.6002 83.2022 63.1615C82.06 62.1231 81.1232 61.7868 80.3647 61.7868C79.6063 61.7868 78.6695 62.1231 77.5273 63.1615C75.9447 64.6002 74.1567 65.5024 72.1904 65.5024C70.2241 65.5024 68.436 64.6002 66.8535 63.1615C65.7113 62.1231 64.7745 61.7868 64.016 61.7868C63.2576 61.7868 62.3208 62.1231 61.1785 63.1615C59.596 64.6002 57.808 65.5024 55.8417 65.5024C53.8753 65.5024 52.0873 64.6002 50.5048 63.1615C49.3625 62.1231 48.4258 61.7868 47.6673 61.7868C46.9088 61.7868 45.9721 62.1231 44.8298 63.1615C43.2473 64.6002 41.4593 65.5024 39.4929 65.5024C37.5266 65.5024 35.7386 64.6002 34.1561 63.1615C33.0138 62.1231 32.077 61.7868 31.3186 61.7868C30.5601 61.7868 29.6233 62.1231 28.4811 63.1615C26.8986 64.6002 25.1105 65.5024 23.1442 65.5024C21.1779 65.5024 19.3899 64.6002 17.8073 63.1615C17.0481 62.4713 16.9922 61.2963 17.6824 60.5371C18.3726 59.7779 19.5475 59.722 20.3067 60.4122Z"/>
<path d="M24.6305 74.7915C24.6305 73.7655 25.4622 72.9337 26.4883 72.9337H97.085C98.1111 72.9337 98.9428 72.1019 98.9428 71.0759C98.9428 70.0498 98.1111 69.2181 97.085 69.2181H26.4883C23.4102 69.2181 20.9149 71.7134 20.9149 74.7915C20.9149 77.8696 23.4102 80.3649 26.4883 80.3649H93.3694C94.3954 80.3649 95.2272 81.1967 95.2272 82.2227C95.2272 83.2488 94.3954 84.0805 93.3694 84.0805H22.7727C21.7466 84.0805 20.9149 84.9123 20.9149 85.9383C20.9149 86.9644 21.7466 87.7962 22.7727 87.7962H93.3694C96.4475 87.7962 98.9428 85.3008 98.9428 82.2227C98.9428 79.1446 96.4475 76.6493 93.3694 76.6493H26.4883C25.4622 76.6493 24.6305 75.8175 24.6305 74.7915Z"/>
</mask>
<path d="M46.38 34.4902C45.6545 33.7647 45.6545 32.5884 46.38 31.8629L49.0074 29.2356C49.7329 28.51 50.9092 28.51 51.6347 29.2356C52.3602 29.9611 52.3602 31.1374 51.6347 31.8629L49.0074 34.4902C48.2819 35.2158 47.1055 35.2158 46.38 34.4902Z" fill="#404040"/>
<path d="M36.7194 40.4616C35.9939 41.1871 35.9939 42.3634 36.7194 43.089C37.4449 43.8145 38.6212 43.8145 39.3467 43.089L41.9741 40.4616C42.6996 39.7361 42.6996 38.5598 41.9741 37.8343C41.2486 37.1088 40.0723 37.1088 39.3467 37.8343L36.7194 40.4616Z" fill="#404040"/>
<path d="M47.8663 44.1772C47.1407 44.9028 47.1407 46.0791 47.8663 46.8046C48.5918 47.5301 49.7681 47.5301 50.4936 46.8046L53.1209 44.1772C53.8465 43.4517 53.8465 42.2754 53.1209 41.5499C52.3954 40.8244 51.2191 40.8244 50.4936 41.5499L47.8663 44.1772Z" fill="#404040"/>
<path d="M59.0131 33.0304C58.2876 33.7559 58.2876 34.9322 59.0131 35.6577C59.7386 36.3832 60.9149 36.3832 61.6404 35.6577L64.2678 33.0304C64.9933 32.3049 64.9933 31.1286 64.2678 30.403C63.5423 29.6775 62.366 29.6775 61.6404 30.403L59.0131 33.0304Z" fill="#404040"/>
<path d="M70.16 39.3733C69.4344 38.6478 69.4344 37.4715 70.16 36.746L72.7873 34.1187C73.5128 33.3931 74.6891 33.3931 75.4146 34.1187C76.1402 34.8442 76.1402 36.0205 75.4146 36.746L72.7873 39.3733C72.0618 40.0989 70.8855 40.0989 70.16 39.3733Z" fill="#404040"/>
<path d="M77.5912 44.1772C76.8657 44.9028 76.8657 46.0791 77.5912 46.8046C78.3167 47.5301 79.493 47.5301 80.2185 46.8046L82.8459 44.1772C83.5714 43.4517 83.5714 42.2754 82.8459 41.5499C82.1204 40.8244 80.9441 40.8244 80.2185 41.5499L77.5912 44.1772Z" fill="#404040"/>
<path d="M61.2425 47.9193C60.517 47.1938 60.517 46.0175 61.2425 45.292L63.8698 42.6646C64.5954 41.9391 65.7717 41.9391 66.4972 42.6646C67.2227 43.3901 67.2227 44.5664 66.4972 45.292L63.8698 47.9193C63.1443 48.6448 61.968 48.6448 61.2425 47.9193Z" fill="#404040"/>
<path fill-rule="evenodd" clip-rule="evenodd" d="M25.4196 54.6494C21.3163 54.5643 17.9685 51.1084 19.1517 47.1785C19.7087 45.3286 20.4624 43.5177 21.4072 41.7662C23.5722 37.7531 26.6986 34.1307 30.6078 31.1059C34.5171 28.0811 39.1327 25.7131 44.1911 24.1372C49.2494 22.5612 54.6516 21.8081 60.089 21.9209C65.5264 22.0338 70.8927 23.0103 75.8813 24.7947C80.87 26.5791 85.3834 29.1365 89.1638 32.3208C92.9442 35.5052 95.9176 39.2541 97.9143 43.3536C98.2314 44.0046 98.5228 44.6624 98.7884 45.326C101.076 51.0414 95.8111 56.1099 89.6562 55.9822L25.4196 54.6494ZM22.7096 48.2497C23.1926 46.6454 23.8488 45.0662 24.6774 43.5304C26.5758 40.0113 29.348 36.7787 32.8816 34.0445C36.4163 31.3096 40.63 29.1384 45.2963 27.6846C49.962 26.231 54.9643 25.531 60.0119 25.6358C65.0595 25.7405 70.0285 26.6473 74.6299 28.2932C79.2319 29.9393 83.3519 32.2834 86.7701 35.1626C90.1873 38.041 92.823 41.3858 94.5738 44.9806C94.8519 45.5515 95.1069 46.1272 95.3388 46.7066C95.8956 48.0977 95.5908 49.3061 94.6477 50.3361C93.6161 51.4629 91.8119 52.3105 89.7333 52.2674L25.4967 50.9346C24.4446 50.9127 23.5802 50.4551 23.0926 49.9011C22.6551 49.404 22.5231 48.8691 22.7096 48.2497Z" fill="#404040"/>
<path d="M24.6305 91.5118C20.5263 91.5118 17.1992 94.8389 17.1992 98.943C17.1992 103.047 20.5263 106.374 24.6305 106.374H78.5069C79.533 106.374 80.3647 105.542 80.3647 104.516C80.3647 103.49 79.533 102.659 78.5069 102.659H24.6305C22.5784 102.659 20.9148 100.995 20.9148 98.943C20.9148 96.8909 22.5784 95.2274 24.6305 95.2274H95.2272C97.2793 95.2274 98.9428 96.8909 98.9428 98.943C98.9428 100.995 97.2793 102.659 95.2272 102.659H87.796C86.7699 102.659 85.9382 103.49 85.9382 104.516C85.9382 105.542 86.7699 106.374 87.796 106.374H95.2272C99.3314 106.374 102.658 103.047 102.658 98.943C102.658 94.8389 99.3314 91.5118 95.2272 91.5118H24.6305Z" fill="#404040"/>
<path d="M20.3067 60.4122C21.449 61.4506 22.3858 61.7868 23.1442 61.7868C23.9027 61.7868 24.8395 61.4506 25.9817 60.4122C27.5642 58.9735 29.3523 58.0712 31.3186 58.0712C33.2849 58.0712 35.0729 58.9735 36.6555 60.4122C37.7977 61.4506 38.7345 61.7868 39.4929 61.7868C40.2514 61.7868 41.1882 61.4506 42.3304 60.4122C43.913 58.9735 45.701 58.0712 47.6673 58.0712C49.6336 58.0712 51.4216 58.9735 53.0042 60.4122C54.1464 61.4506 55.0832 61.7868 55.8417 61.7868C56.6001 61.7868 57.5369 61.4506 58.6791 60.4122C60.2617 58.9735 62.0497 58.0712 64.016 58.0712C65.9823 58.0712 67.7704 58.9735 69.3529 60.4122C70.4952 61.4506 71.4319 61.7868 72.1904 61.7868C72.9489 61.7868 73.8856 61.4506 75.0279 60.4122C76.6104 58.9735 78.3984 58.0712 80.3647 58.0712C82.3311 58.0712 84.1191 58.9735 85.7016 60.4122C86.8439 61.4506 87.7806 61.7868 88.5391 61.7868C89.2976 61.7868 90.2343 61.4506 91.3766 60.4122C92.9591 58.9735 94.7471 58.0712 96.7135 58.0712C98.6798 58.0712 100.468 58.9735 102.05 60.4122C102.81 61.1024 102.866 62.2773 102.175 63.0365C101.485 63.7957 100.31 63.8517 99.5509 63.1615C98.4087 62.1231 97.4719 61.7868 96.7135 61.7868C95.955 61.7868 95.0182 62.1231 93.876 63.1615C92.2934 64.6002 90.5054 65.5024 88.5391 65.5024C86.5728 65.5024 84.7848 64.6002 83.2022 63.1615C82.06 62.1231 81.1232 61.7868 80.3647 61.7868C79.6063 61.7868 78.6695 62.1231 77.5273 63.1615C75.9447 64.6002 74.1567 65.5024 72.1904 65.5024C70.2241 65.5024 68.436 64.6002 66.8535 63.1615C65.7113 62.1231 64.7745 61.7868 64.016 61.7868C63.2576 61.7868 62.3208 62.1231 61.1785 63.1615C59.596 64.6002 57.808 65.5024 55.8417 65.5024C53.8753 65.5024 52.0873 64.6002 50.5048 63.1615C49.3625 62.1231 48.4258 61.7868 47.6673 61.7868C46.9088 61.7868 45.9721 62.1231 44.8298 63.1615C43.2473 64.6002 41.4593 65.5024 39.4929 65.5024C37.5266 65.5024 35.7386 64.6002 34.1561 63.1615C33.0138 62.1231 32.077 61.7868 31.3186 61.7868C30.5601 61.7868 29.6233 62.1231 28.4811 63.1615C26.8986 64.6002 25.1105 65.5024 23.1442 65.5024C21.1779 65.5024 19.3899 64.6002 17.8073 63.1615C17.0481 62.4713 16.9922 61.2963 17.6824 60.5371C18.3726 59.7779 19.5475 59.722 20.3067 60.4122Z" fill="#404040"/>
<path d="M24.6305 74.7915C24.6305 73.7655 25.4622 72.9337 26.4883 72.9337H97.085C98.1111 72.9337 98.9428 72.1019 98.9428 71.0759C98.9428 70.0498 98.1111 69.2181 97.085 69.2181H26.4883C23.4102 69.2181 20.9149 71.7134 20.9149 74.7915C20.9149 77.8696 23.4102 80.3649 26.4883 80.3649H93.3694C94.3954 80.3649 95.2272 81.1967 95.2272 82.2227C95.2272 83.2488 94.3954 84.0805 93.3694 84.0805H22.7727C21.7466 84.0805 20.9149 84.9123 20.9149 85.9383C20.9149 86.9644 21.7466 87.7962 22.7727 87.7962H93.3694C96.4475 87.7962 98.9428 85.3008 98.9428 82.2227C98.9428 79.1446 96.4475 76.6493 93.3694 76.6493H26.4883C25.4622 76.6493 24.6305 75.8175 24.6305 74.7915Z" fill="#404040"/>
<path d="M46.38 34.4902C45.6545 33.7647 45.6545 32.5884 46.38 31.8629L49.0074 29.2356C49.7329 28.51 50.9092 28.51 51.6347 29.2356C52.3602 29.9611 52.3602 31.1374 51.6347 31.8629L49.0074 34.4902C48.2819 35.2158 47.1055 35.2158 46.38 34.4902Z" stroke="#FBA29E" stroke-width="7.43124" mask="url(#path-1-inside-1_203_47)"/>
<path d="M36.7194 40.4616C35.9939 41.1871 35.9939 42.3634 36.7194 43.089C37.4449 43.8145 38.6212 43.8145 39.3467 43.089L41.9741 40.4616C42.6996 39.7361 42.6996 38.5598 41.9741 37.8343C41.2486 37.1088 40.0723 37.1088 39.3467 37.8343L36.7194 40.4616Z" stroke="#FBA29E" stroke-width="7.43124" mask="url(#path-1-inside-1_203_47)"/>
<path d="M47.8663 44.1772C47.1407 44.9028 47.1407 46.0791 47.8663 46.8046C48.5918 47.5301 49.7681 47.5301 50.4936 46.8046L53.1209 44.1772C53.8465 43.4517 53.8465 42.2754 53.1209 41.5499C52.3954 40.8244 51.2191 40.8244 50.4936 41.5499L47.8663 44.1772Z" stroke="#FBA29E" stroke-width="7.43124" mask="url(#path-1-inside-1_203_47)"/>
<path d="M59.0131 33.0304C58.2876 33.7559 58.2876 34.9322 59.0131 35.6577C59.7386 36.3832 60.9149 36.3832 61.6404 35.6577L64.2678 33.0304C64.9933 32.3049 64.9933 31.1286 64.2678 30.403C63.5423 29.6775 62.366 29.6775 61.6404 30.403L59.0131 33.0304Z" stroke="#FBA29E" stroke-width="7.43124" mask="url(#path-1-inside-1_203_47)"/>
<path d="M70.16 39.3733C69.4344 38.6478 69.4344 37.4715 70.16 36.746L72.7873 34.1187C73.5128 33.3931 74.6891 33.3931 75.4146 34.1187C76.1402 34.8442 76.1402 36.0205 75.4146 36.746L72.7873 39.3733C72.0618 40.0989 70.8855 40.0989 70.16 39.3733Z" stroke="#FBA29E" stroke-width="7.43124" mask="url(#path-1-inside-1_203_47)"/>
<path d="M77.5912 44.1772C76.8657 44.9028 76.8657 46.0791 77.5912 46.8046C78.3167 47.5301 79.493 47.5301 80.2185 46.8046L82.8459 44.1772C83.5714 43.4517 83.5714 42.2754 82.8459 41.5499C82.1204 40.8244 80.9441 40.8244 80.2185 41.5499L77.5912 44.1772Z" stroke="#FBA29E" stroke-width="7.43124" mask="url(#path-1-inside-1_203_47)"/>
<path d="M61.2425 47.9193C60.517 47.1938 60.517 46.0175 61.2425 45.292L63.8698 42.6646C64.5954 41.9391 65.7717 41.9391 66.4972 42.6646C67.2227 43.3901 67.2227 44.5664 66.4972 45.292L63.8698 47.9193C63.1443 48.6448 61.968 48.6448 61.2425 47.9193Z" stroke="#FBA29E" stroke-width="7.43124" mask="url(#path-1-inside-1_203_47)"/>
<path fill-rule="evenodd" clip-rule="evenodd" d="M25.4196 54.6494C21.3163 54.5643 17.9685 51.1084 19.1517 47.1785C19.7087 45.3286 20.4624 43.5177 21.4072 41.7662C23.5722 37.7531 26.6986 34.1307 30.6078 31.1059C34.5171 28.0811 39.1327 25.7131 44.1911 24.1372C49.2494 22.5612 54.6516 21.8081 60.089 21.9209C65.5264 22.0338 70.8927 23.0103 75.8813 24.7947C80.87 26.5791 85.3834 29.1365 89.1638 32.3208C92.9442 35.5052 95.9176 39.2541 97.9143 43.3536C98.2314 44.0046 98.5228 44.6624 98.7884 45.326C101.076 51.0414 95.8111 56.1099 89.6562 55.9822L25.4196 54.6494ZM22.7096 48.2497C23.1926 46.6454 23.8488 45.0662 24.6774 43.5304C26.5758 40.0113 29.348 36.7787 32.8816 34.0445C36.4163 31.3096 40.63 29.1384 45.2963 27.6846C49.962 26.231 54.9643 25.531 60.0119 25.6358C65.0595 25.7405 70.0285 26.6473 74.6299 28.2932C79.2319 29.9393 83.3519 32.2834 86.7701 35.1626C90.1873 38.041 92.823 41.3858 94.5738 44.9806C94.8519 45.5515 95.1069 46.1272 95.3388 46.7066C95.8956 48.0977 95.5908 49.3061 94.6477 50.3361C93.6161 51.4629 91.8119 52.3105 89.7333 52.2674L25.4967 50.9346C24.4446 50.9127 23.5802 50.4551 23.0926 49.9011C22.6551 49.404 22.5231 48.8691 22.7096 48.2497Z" stroke="#FBA29E" stroke-width="7.43124" mask="url(#path-1-inside-1_203_47)"/>
<path d="M24.6305 91.5118C20.5263 91.5118 17.1992 94.8389 17.1992 98.943C17.1992 103.047 20.5263 106.374 24.6305 106.374H78.5069C79.533 106.374 80.3647 105.542 80.3647 104.516C80.3647 103.49 79.533 102.659 78.5069 102.659H24.6305C22.5784 102.659 20.9148 100.995 20.9148 98.943C20.9148 96.8909 22.5784 95.2274 24.6305 95.2274H95.2272C97.2793 95.2274 98.9428 96.8909 98.9428 98.943C98.9428 100.995 97.2793 102.659 95.2272 102.659H87.796C86.7699 102.659 85.9382 103.49 85.9382 104.516C85.9382 105.542 86.7699 106.374 87.796 106.374H95.2272C99.3314 106.374 102.658 103.047 102.658 98.943C102.658 94.8389 99.3314 91.5118 95.2272 91.5118H24.6305Z" stroke="#FBA29E" stroke-width="7.43124" mask="url(#path-1-inside-1_203_47)"/>
<path d="M20.3067 60.4122C21.449 61.4506 22.3858 61.7868 23.1442 61.7868C23.9027 61.7868 24.8395 61.4506 25.9817 60.4122C27.5642 58.9735 29.3523 58.0712 31.3186 58.0712C33.2849 58.0712 35.0729 58.9735 36.6555 60.4122C37.7977 61.4506 38.7345 61.7868 39.4929 61.7868C40.2514 61.7868 41.1882 61.4506 42.3304 60.4122C43.913 58.9735 45.701 58.0712 47.6673 58.0712C49.6336 58.0712 51.4216 58.9735 53.0042 60.4122C54.1464 61.4506 55.0832 61.7868 55.8417 61.7868C56.6001 61.7868 57.5369 61.4506 58.6791 60.4122C60.2617 58.9735 62.0497 58.0712 64.016 58.0712C65.9823 58.0712 67.7704 58.9735 69.3529 60.4122C70.4952 61.4506 71.4319 61.7868 72.1904 61.7868C72.9489 61.7868 73.8856 61.4506 75.0279 60.4122C76.6104 58.9735 78.3984 58.0712 80.3647 58.0712C82.3311 58.0712 84.1191 58.9735 85.7016 60.4122C86.8439 61.4506 87.7806 61.7868 88.5391 61.7868C89.2976 61.7868 90.2343 61.4506 91.3766 60.4122C92.9591 58.9735 94.7471 58.0712 96.7135 58.0712C98.6798 58.0712 100.468 58.9735 102.05 60.4122C102.81 61.1024 102.866 62.2773 102.175 63.0365C101.485 63.7957 100.31 63.8517 99.5509 63.1615C98.4087 62.1231 97.4719 61.7868 96.7135 61.7868C95.955 61.7868 95.0182 62.1231 93.876 63.1615C92.2934 64.6002 90.5054 65.5024 88.5391 65.5024C86.5728 65.5024 84.7848 64.6002 83.2022 63.1615C82.06 62.1231 81.1232 61.7868 80.3647 61.7868C79.6063 61.7868 78.6695 62.1231 77.5273 63.1615C75.9447 64.6002 74.1567 65.5024 72.1904 65.5024C70.2241 65.5024 68.436 64.6002 66.8535 63.1615C65.7113 62.1231 64.7745 61.7868 64.016 61.7868C63.2576 61.7868 62.3208 62.1231 61.1785 63.1615C59.596 64.6002 57.808 65.5024 55.8417 65.5024C53.8753 65.5024 52.0873 64.6002 50.5048 63.1615C49.3625 62.1231 48.4258 61.7868 47.6673 61.7868C46.9088 61.7868 45.9721 62.1231 44.8298 63.1615C43.2473 64.6002 41.4593 65.5024 39.4929 65.5024C37.5266 65.5024 35.7386 64.6002 34.1561 63.1615C33.0138 62.1231 32.077 61.7868 31.3186 61.7868C30.5601 61.7868 29.6233 62.1231 28.4811 63.1615C26.8986 64.6002 25.1105 65.5024 23.1442 65.5024C21.1779 65.5024 19.3899 64.6002 17.8073 63.1615C17.0481 62.4713 16.9922 61.2963 17.6824 60.5371C18.3726 59.7779 19.5475 59.722 20.3067 60.4122Z" stroke="#FBA29E" stroke-width="7.43124" mask="url(#path-1-inside-1_203_47)"/>
<path d="M24.6305 74.7915C24.6305 73.7655 25.4622 72.9337 26.4883 72.9337H97.085C98.1111 72.9337 98.9428 72.1019 98.9428 71.0759C98.9428 70.0498 98.1111 69.2181 97.085 69.2181H26.4883C23.4102 69.2181 20.9149 71.7134 20.9149 74.7915C20.9149 77.8696 23.4102 80.3649 26.4883 80.3649H93.3694C94.3954 80.3649 95.2272 81.1967 95.2272 82.2227C95.2272 83.2488 94.3954 84.0805 93.3694 84.0805H22.7727C21.7466 84.0805 20.9149 84.9123 20.9149 85.9383C20.9149 86.9644 21.7466 87.7962 22.7727 87.7962H93.3694C96.4475 87.7962 98.9428 85.3008 98.9428 82.2227C98.9428 79.1446 96.4475 76.6493 93.3694 76.6493H26.4883C25.4622 76.6493 24.6305 75.8175 24.6305 74.7915Z" stroke="#FBA29E" stroke-width="7.43124" mask="url(#path-1-inside-1_203_47)"/>
</svg>
