<svg width="120" height="119" viewBox="0 0 120 119" fill="none" xmlns="http://www.w3.org/2000/svg" >
<path fill-rule="evenodd" clip-rule="evenodd" d="M20.0087 92.9204C18.5372 97.2631 22.647 101.426 27.0082 100.01L89.3871 79.7607C90.363 79.444 90.8973 78.396 90.5805 77.4201C90.2637 76.4442 89.2158 75.9099 88.2398 76.2267L25.861 96.4761C24.4072 96.948 23.0373 95.5604 23.5278 94.1128L46.1631 27.311C46.6051 26.0068 48.2626 25.6199 49.2363 26.5936L94.9281 72.2853C97.1047 74.4619 100.634 74.4619 102.81 72.2853L107.408 67.6875C109.585 65.5109 109.585 61.982 107.408 59.8055L58.94 11.3375C57.4128 9.81035 54.9368 9.81035 53.4097 11.3375L48.2928 16.4544C47.5673 17.1799 47.5673 18.3562 48.2928 19.0817C49.0183 19.8072 50.1946 19.8072 50.9202 19.0817L56.037 13.9648C56.1131 13.8887 56.2365 13.8887 56.3127 13.9648L104.781 62.4328C105.506 63.1583 105.506 64.3346 104.781 65.0601L100.183 69.658C99.4573 70.3835 98.281 70.3835 97.5554 69.658L51.8637 23.9662C48.9425 21.0451 43.9698 22.206 42.644 26.1186L20.0087 92.9204ZM41.7245 72.9422C43.1755 71.4911 45.5281 71.4911 46.9792 72.9422C48.4302 74.3932 48.4302 76.7458 46.9792 78.1968C45.5281 79.6479 43.1755 79.6479 41.7245 78.1968C40.2734 76.7458 40.2734 74.3932 41.7245 72.9422ZM65.3705 65.0601C66.8216 63.6091 69.1742 63.6091 70.6252 65.0601C72.0763 66.5112 72.0763 68.8638 70.6252 70.3148C69.1742 71.7659 66.8216 71.7659 65.3705 70.3148C63.9195 68.8638 63.9195 66.5112 65.3705 65.0601ZM49.6065 49.2961C51.0575 47.8451 53.4101 47.8451 54.8612 49.2961C56.3122 50.7471 56.3122 53.0997 54.8612 54.5508C53.4101 56.0018 51.0575 56.0018 49.6065 54.5508C48.1555 53.0997 48.1555 50.7471 49.6065 49.2961ZM46.9792 46.6688C49.8812 43.7667 54.5864 43.7667 57.4885 46.6688C60.3906 49.5708 60.3906 54.276 57.4885 57.1781C54.5864 60.0802 49.8812 60.0802 46.9792 57.1781C44.0771 54.276 44.0771 49.5708 46.9792 46.6688ZM73.2526 62.4328C70.3505 59.5307 65.6453 59.5307 62.7432 62.4328C59.8411 65.3349 59.8411 70.0401 62.7432 72.9422C65.6453 75.8442 70.3505 75.8442 73.2526 72.9422C76.1546 70.0401 76.1546 65.3349 73.2526 62.4328ZM49.6065 70.3148C46.7044 67.4127 41.9992 67.4127 39.0971 70.3148C36.1951 73.2169 36.1951 77.9221 39.0971 80.8242C41.9992 83.7262 46.7044 83.7262 49.6065 80.8242C52.5086 77.9221 52.5086 73.2169 49.6065 70.3148Z" fill="#404040"/>
</svg>
