<svg width="120" height="119" viewBox="0 0 120 119" fill="none" xmlns="http://www.w3.org/2000/svg">
<mask id="path-1-inside-1_18_3" fill="white">
<path d="M46.1761 34.063C45.4506 33.3375 45.4506 32.1612 46.1761 31.4357L48.8035 28.8083C49.529 28.0828 50.7053 28.0828 51.4308 28.8083C52.1563 29.5338 52.1563 30.7101 51.4308 31.4357L48.8035 34.063C48.0779 34.7885 46.9016 34.7885 46.1761 34.063Z"/>
<path d="M36.5155 40.0344C35.79 40.7599 35.79 41.9362 36.5155 42.6617C37.241 43.3872 38.4173 43.3872 39.1428 42.6617L41.7702 40.0344C42.4957 39.3089 42.4957 38.1326 41.7702 37.407C41.0446 36.6815 39.8683 36.6815 39.1428 37.407L36.5155 40.0344Z"/>
<path d="M47.6623 43.75C46.9368 44.4755 46.9368 45.6518 47.6623 46.3773C48.3879 47.1029 49.5642 47.1029 50.2897 46.3773L52.917 43.75C53.6425 43.0245 53.6425 41.8482 52.917 41.1227C52.1915 40.3971 51.0152 40.3971 50.2897 41.1227L47.6623 43.75Z"/>
<path d="M58.8092 32.6031C58.0837 33.3287 58.0837 34.505 58.8092 35.2305C59.5347 35.956 60.711 35.956 61.4365 35.2305L64.0639 32.6031C64.7894 31.8776 64.7894 30.7013 64.0639 29.9758C63.3383 29.2503 62.162 29.2503 61.4365 29.9758L58.8092 32.6031Z"/>
<path d="M69.956 38.9461C69.2305 38.2206 69.2305 37.0443 69.956 36.3188L72.5834 33.6914C73.3089 32.9659 74.4852 32.9659 75.2107 33.6914C75.9362 34.4169 75.9362 35.5932 75.2107 36.3188L72.5834 38.9461C71.8579 39.6716 70.6816 39.6716 69.956 38.9461Z"/>
<path d="M77.3873 43.75C76.6618 44.4755 76.6618 45.6518 77.3873 46.3773C78.1128 47.1029 79.2891 47.1029 80.0146 46.3773L82.642 43.75C83.3675 43.0245 83.3675 41.8482 82.642 41.1227C81.9164 40.3971 80.7401 40.3971 80.0146 41.1227L77.3873 43.75Z"/>
<path d="M61.0386 47.492C60.3131 46.7665 60.3131 45.5902 61.0386 44.8647L63.6659 42.2374C64.3914 41.5118 65.5677 41.5118 66.2933 42.2374C67.0188 42.9629 67.0188 44.1392 66.2933 44.8647L63.6659 47.492C62.9404 48.2176 61.7641 48.2176 61.0386 47.492Z"/>
<path fill-rule="evenodd" clip-rule="evenodd" d="M25.2157 54.2221C21.1124 54.137 17.7646 50.6811 18.9478 46.7512C19.5048 44.9014 20.2585 43.0905 21.2033 41.339C23.3683 37.3258 26.4947 33.7034 30.4039 30.6786C34.3132 27.6538 38.9288 25.2859 43.9871 23.7099C49.0455 22.134 54.4477 21.3809 59.8851 21.4937C65.3225 21.6065 70.6887 22.583 75.6774 24.3674C80.6661 26.1518 85.1795 28.7092 88.9599 31.8936C92.7403 35.0779 95.7137 38.8269 97.7104 42.9264C98.0274 43.5773 98.3189 44.2351 98.5845 44.8987C100.872 50.6142 95.6072 55.6826 89.4523 55.5549L25.2157 54.2221ZM22.5057 47.8225C22.9887 46.2181 23.6449 44.639 24.4734 43.1031C26.3719 39.584 29.1441 36.3515 32.6777 33.6173C36.2124 30.8823 40.4261 28.7111 45.0924 27.2573C49.7581 25.8037 54.7604 25.1038 59.808 25.2085C64.8556 25.3132 69.8245 26.2201 74.426 27.866C79.0279 29.5121 83.148 31.8562 86.5662 34.7354C89.9833 37.6138 92.6191 40.9586 94.3699 44.5533C94.648 45.1243 94.903 45.6999 95.1349 46.2794C95.6917 47.6705 95.3869 48.8788 94.4438 49.9089C93.4122 51.0357 91.608 51.8832 89.5293 51.8401L25.2928 50.5073C24.2407 50.4855 23.3763 50.0279 22.8887 49.4738C22.4512 48.9767 22.3192 48.4419 22.5057 47.8225Z"/>
<path d="M24.4265 91.0845C20.3224 91.0845 16.9953 94.4116 16.9953 98.5158C16.9953 102.62 20.3224 105.947 24.4265 105.947H78.303C79.329 105.947 80.1608 105.115 80.1608 104.089C80.1608 103.063 79.329 102.231 78.303 102.231H24.4265C22.3745 102.231 20.7109 100.568 20.7109 98.5158C20.7109 96.4637 22.3745 94.8001 24.4265 94.8001H95.0233C97.0754 94.8001 98.7389 96.4637 98.7389 98.5158C98.7389 100.568 97.0754 102.231 95.0233 102.231H87.592C86.566 102.231 85.7342 103.063 85.7342 104.089C85.7342 105.115 86.566 105.947 87.592 105.947H95.0233C99.1274 105.947 102.455 102.62 102.455 98.5158C102.455 94.4116 99.1274 91.0845 95.0233 91.0845H24.4265Z"/>
<path d="M20.1028 59.9849C21.2451 61.0233 22.1818 61.3596 22.9403 61.3596C23.6988 61.3596 24.6355 61.0233 25.7778 59.9849C27.3603 58.5462 29.1483 57.644 31.1147 57.644C33.081 57.644 34.869 58.5462 36.4515 59.9849C37.5938 61.0233 38.5306 61.3596 39.289 61.3596C40.0475 61.3596 40.9843 61.0233 42.1265 59.9849C43.709 58.5462 45.4971 57.644 47.4634 57.644C49.4297 57.644 51.2177 58.5462 52.8003 59.9849C53.9425 61.0233 54.8793 61.3596 55.6377 61.3596C56.3962 61.3596 57.333 61.0233 58.4752 59.9849C60.0578 58.5462 61.8458 57.644 63.8121 57.644C65.7784 57.644 67.5664 58.5462 69.149 59.9849C70.2912 61.0233 71.228 61.3596 71.9865 61.3596C72.7449 61.3596 73.6817 61.0233 74.8239 59.9849C76.4065 58.5462 78.1945 57.644 80.1608 57.644C82.1271 57.644 83.9152 58.5462 85.4977 59.9849C86.64 61.0233 87.5767 61.3596 88.3352 61.3596C89.0937 61.3596 90.0304 61.0233 91.1727 59.9849C92.7552 58.5462 94.5432 57.644 96.5095 57.644C98.4759 57.644 100.264 58.5462 101.846 59.9849C102.606 60.6751 102.662 61.8501 101.971 62.6093C101.281 63.3685 100.106 63.4244 99.347 62.7343C98.2048 61.6958 97.268 61.3596 96.5095 61.3596C95.7511 61.3596 94.8143 61.6958 93.6721 62.7343C92.0895 64.1729 90.3015 65.0752 88.3352 65.0752C86.3689 65.0752 84.5808 64.1729 82.9983 62.7343C81.8561 61.6958 80.9193 61.3596 80.1608 61.3596C79.4024 61.3596 78.4656 61.6958 77.3233 62.7343C75.7408 64.1729 73.9528 65.0752 71.9865 65.0752C70.0201 65.0752 68.2321 64.1729 66.6496 62.7343C65.5073 61.6958 64.5706 61.3596 63.8121 61.3596C63.0536 61.3596 62.1169 61.6958 60.9746 62.7343C59.3921 64.1729 57.6041 65.0752 55.6377 65.0752C53.6714 65.0752 51.8834 64.1729 50.3009 62.7343C49.1586 61.6958 48.2219 61.3596 47.4634 61.3596C46.7049 61.3596 45.7682 61.6958 44.6259 62.7343C43.0434 64.1729 41.2553 65.0752 39.289 65.0752C37.3227 65.0752 35.5347 64.1729 33.9521 62.7343C32.8099 61.6958 31.8731 61.3596 31.1147 61.3596C30.3562 61.3596 29.4194 61.6958 28.2772 62.7343C26.6946 64.1729 24.9066 65.0752 22.9403 65.0752C20.974 65.0752 19.186 64.1729 17.6034 62.7343C16.8442 62.0441 16.7883 60.8691 17.4785 60.1099C18.1686 59.3507 19.3436 59.2947 20.1028 59.9849Z"/>
<path d="M24.4266 74.3642C24.4266 73.3382 25.2583 72.5064 26.2844 72.5064H96.8811C97.9072 72.5064 98.7389 71.6747 98.7389 70.6486C98.7389 69.6226 97.9072 68.7908 96.8811 68.7908H26.2844C23.2062 68.7908 20.7109 71.2861 20.7109 74.3642C20.7109 77.4424 23.2062 79.9377 26.2844 79.9377H93.1655C94.1915 79.9377 95.0233 80.7694 95.0233 81.7955C95.0233 82.8215 94.1915 83.6533 93.1655 83.6533H22.5687C21.5427 83.6533 20.7109 84.4851 20.7109 85.5111C20.7109 86.5371 21.5427 87.3689 22.5687 87.3689H93.1655C96.2436 87.3689 98.7389 84.8736 98.7389 81.7955C98.7389 78.7174 96.2436 76.2221 93.1655 76.2221H26.2844C25.2583 76.2221 24.4266 75.3903 24.4266 74.3642Z"/>
</mask>
<path d="M46.1761 34.063C45.4506 33.3375 45.4506 32.1612 46.1761 31.4357L48.8035 28.8083C49.529 28.0828 50.7053 28.0828 51.4308 28.8083C52.1563 29.5338 52.1563 30.7101 51.4308 31.4357L48.8035 34.063C48.0779 34.7885 46.9016 34.7885 46.1761 34.063Z" fill="#404040"/>
<path d="M36.5155 40.0344C35.79 40.7599 35.79 41.9362 36.5155 42.6617C37.241 43.3872 38.4173 43.3872 39.1428 42.6617L41.7702 40.0344C42.4957 39.3089 42.4957 38.1326 41.7702 37.407C41.0446 36.6815 39.8683 36.6815 39.1428 37.407L36.5155 40.0344Z" fill="#404040"/>
<path d="M47.6623 43.75C46.9368 44.4755 46.9368 45.6518 47.6623 46.3773C48.3879 47.1029 49.5642 47.1029 50.2897 46.3773L52.917 43.75C53.6425 43.0245 53.6425 41.8482 52.917 41.1227C52.1915 40.3971 51.0152 40.3971 50.2897 41.1227L47.6623 43.75Z" fill="#404040"/>
<path d="M58.8092 32.6031C58.0837 33.3287 58.0837 34.505 58.8092 35.2305C59.5347 35.956 60.711 35.956 61.4365 35.2305L64.0639 32.6031C64.7894 31.8776 64.7894 30.7013 64.0639 29.9758C63.3383 29.2503 62.162 29.2503 61.4365 29.9758L58.8092 32.6031Z" fill="#404040"/>
<path d="M69.956 38.9461C69.2305 38.2206 69.2305 37.0443 69.956 36.3188L72.5834 33.6914C73.3089 32.9659 74.4852 32.9659 75.2107 33.6914C75.9362 34.4169 75.9362 35.5932 75.2107 36.3188L72.5834 38.9461C71.8579 39.6716 70.6816 39.6716 69.956 38.9461Z" fill="#404040"/>
<path d="M77.3873 43.75C76.6618 44.4755 76.6618 45.6518 77.3873 46.3773C78.1128 47.1029 79.2891 47.1029 80.0146 46.3773L82.642 43.75C83.3675 43.0245 83.3675 41.8482 82.642 41.1227C81.9164 40.3971 80.7401 40.3971 80.0146 41.1227L77.3873 43.75Z" fill="#404040"/>
<path d="M61.0386 47.492C60.3131 46.7665 60.3131 45.5902 61.0386 44.8647L63.6659 42.2374C64.3914 41.5118 65.5677 41.5118 66.2933 42.2374C67.0188 42.9629 67.0188 44.1392 66.2933 44.8647L63.6659 47.492C62.9404 48.2176 61.7641 48.2176 61.0386 47.492Z" fill="#404040"/>
<path fill-rule="evenodd" clip-rule="evenodd" d="M25.2157 54.2221C21.1124 54.137 17.7646 50.6811 18.9478 46.7512C19.5048 44.9014 20.2585 43.0905 21.2033 41.339C23.3683 37.3258 26.4947 33.7034 30.4039 30.6786C34.3132 27.6538 38.9288 25.2859 43.9871 23.7099C49.0455 22.134 54.4477 21.3809 59.8851 21.4937C65.3225 21.6065 70.6887 22.583 75.6774 24.3674C80.6661 26.1518 85.1795 28.7092 88.9599 31.8936C92.7403 35.0779 95.7137 38.8269 97.7104 42.9264C98.0274 43.5773 98.3189 44.2351 98.5845 44.8987C100.872 50.6142 95.6072 55.6826 89.4523 55.5549L25.2157 54.2221ZM22.5057 47.8225C22.9887 46.2181 23.6449 44.639 24.4734 43.1031C26.3719 39.584 29.1441 36.3515 32.6777 33.6173C36.2124 30.8823 40.4261 28.7111 45.0924 27.2573C49.7581 25.8037 54.7604 25.1038 59.808 25.2085C64.8556 25.3132 69.8245 26.2201 74.426 27.866C79.0279 29.5121 83.148 31.8562 86.5662 34.7354C89.9833 37.6138 92.6191 40.9586 94.3699 44.5533C94.648 45.1243 94.903 45.6999 95.1349 46.2794C95.6917 47.6705 95.3869 48.8788 94.4438 49.9089C93.4122 51.0357 91.608 51.8832 89.5293 51.8401L25.2928 50.5073C24.2407 50.4855 23.3763 50.0279 22.8887 49.4738C22.4512 48.9767 22.3192 48.4419 22.5057 47.8225Z" fill="#404040"/>
<path d="M24.4265 91.0845C20.3224 91.0845 16.9953 94.4116 16.9953 98.5158C16.9953 102.62 20.3224 105.947 24.4265 105.947H78.303C79.329 105.947 80.1608 105.115 80.1608 104.089C80.1608 103.063 79.329 102.231 78.303 102.231H24.4265C22.3745 102.231 20.7109 100.568 20.7109 98.5158C20.7109 96.4637 22.3745 94.8001 24.4265 94.8001H95.0233C97.0754 94.8001 98.7389 96.4637 98.7389 98.5158C98.7389 100.568 97.0754 102.231 95.0233 102.231H87.592C86.566 102.231 85.7342 103.063 85.7342 104.089C85.7342 105.115 86.566 105.947 87.592 105.947H95.0233C99.1274 105.947 102.455 102.62 102.455 98.5158C102.455 94.4116 99.1274 91.0845 95.0233 91.0845H24.4265Z" fill="#404040"/>
<path d="M20.1028 59.9849C21.2451 61.0233 22.1818 61.3596 22.9403 61.3596C23.6988 61.3596 24.6355 61.0233 25.7778 59.9849C27.3603 58.5462 29.1483 57.644 31.1147 57.644C33.081 57.644 34.869 58.5462 36.4515 59.9849C37.5938 61.0233 38.5306 61.3596 39.289 61.3596C40.0475 61.3596 40.9843 61.0233 42.1265 59.9849C43.709 58.5462 45.4971 57.644 47.4634 57.644C49.4297 57.644 51.2177 58.5462 52.8003 59.9849C53.9425 61.0233 54.8793 61.3596 55.6377 61.3596C56.3962 61.3596 57.333 61.0233 58.4752 59.9849C60.0578 58.5462 61.8458 57.644 63.8121 57.644C65.7784 57.644 67.5664 58.5462 69.149 59.9849C70.2912 61.0233 71.228 61.3596 71.9865 61.3596C72.7449 61.3596 73.6817 61.0233 74.8239 59.9849C76.4065 58.5462 78.1945 57.644 80.1608 57.644C82.1271 57.644 83.9152 58.5462 85.4977 59.9849C86.64 61.0233 87.5767 61.3596 88.3352 61.3596C89.0937 61.3596 90.0304 61.0233 91.1727 59.9849C92.7552 58.5462 94.5432 57.644 96.5095 57.644C98.4759 57.644 100.264 58.5462 101.846 59.9849C102.606 60.6751 102.662 61.8501 101.971 62.6093C101.281 63.3685 100.106 63.4244 99.347 62.7343C98.2048 61.6958 97.268 61.3596 96.5095 61.3596C95.7511 61.3596 94.8143 61.6958 93.6721 62.7343C92.0895 64.1729 90.3015 65.0752 88.3352 65.0752C86.3689 65.0752 84.5808 64.1729 82.9983 62.7343C81.8561 61.6958 80.9193 61.3596 80.1608 61.3596C79.4024 61.3596 78.4656 61.6958 77.3233 62.7343C75.7408 64.1729 73.9528 65.0752 71.9865 65.0752C70.0201 65.0752 68.2321 64.1729 66.6496 62.7343C65.5073 61.6958 64.5706 61.3596 63.8121 61.3596C63.0536 61.3596 62.1169 61.6958 60.9746 62.7343C59.3921 64.1729 57.6041 65.0752 55.6377 65.0752C53.6714 65.0752 51.8834 64.1729 50.3009 62.7343C49.1586 61.6958 48.2219 61.3596 47.4634 61.3596C46.7049 61.3596 45.7682 61.6958 44.6259 62.7343C43.0434 64.1729 41.2553 65.0752 39.289 65.0752C37.3227 65.0752 35.5347 64.1729 33.9521 62.7343C32.8099 61.6958 31.8731 61.3596 31.1147 61.3596C30.3562 61.3596 29.4194 61.6958 28.2772 62.7343C26.6946 64.1729 24.9066 65.0752 22.9403 65.0752C20.974 65.0752 19.186 64.1729 17.6034 62.7343C16.8442 62.0441 16.7883 60.8691 17.4785 60.1099C18.1686 59.3507 19.3436 59.2947 20.1028 59.9849Z" fill="#404040"/>
<path d="M24.4266 74.3642C24.4266 73.3382 25.2583 72.5064 26.2844 72.5064H96.8811C97.9072 72.5064 98.7389 71.6747 98.7389 70.6486C98.7389 69.6226 97.9072 68.7908 96.8811 68.7908H26.2844C23.2062 68.7908 20.7109 71.2861 20.7109 74.3642C20.7109 77.4424 23.2062 79.9377 26.2844 79.9377H93.1655C94.1915 79.9377 95.0233 80.7694 95.0233 81.7955C95.0233 82.8215 94.1915 83.6533 93.1655 83.6533H22.5687C21.5427 83.6533 20.7109 84.4851 20.7109 85.5111C20.7109 86.5371 21.5427 87.3689 22.5687 87.3689H93.1655C96.2436 87.3689 98.7389 84.8736 98.7389 81.7955C98.7389 78.7174 96.2436 76.2221 93.1655 76.2221H26.2844C25.2583 76.2221 24.4266 75.3903 24.4266 74.3642Z" fill="#404040"/>
<path d="M46.1761 34.063C45.4506 33.3375 45.4506 32.1612 46.1761 31.4357L48.8035 28.8083C49.529 28.0828 50.7053 28.0828 51.4308 28.8083C52.1563 29.5338 52.1563 30.7101 51.4308 31.4357L48.8035 34.063C48.0779 34.7885 46.9016 34.7885 46.1761 34.063Z" stroke="#404040" stroke-width="7.43124" mask="url(#path-1-inside-1_18_3)"/>
<path d="M36.5155 40.0344C35.79 40.7599 35.79 41.9362 36.5155 42.6617C37.241 43.3872 38.4173 43.3872 39.1428 42.6617L41.7702 40.0344C42.4957 39.3089 42.4957 38.1326 41.7702 37.407C41.0446 36.6815 39.8683 36.6815 39.1428 37.407L36.5155 40.0344Z" stroke="#404040" stroke-width="7.43124" mask="url(#path-1-inside-1_18_3)"/>
<path d="M47.6623 43.75C46.9368 44.4755 46.9368 45.6518 47.6623 46.3773C48.3879 47.1029 49.5642 47.1029 50.2897 46.3773L52.917 43.75C53.6425 43.0245 53.6425 41.8482 52.917 41.1227C52.1915 40.3971 51.0152 40.3971 50.2897 41.1227L47.6623 43.75Z" stroke="#404040" stroke-width="7.43124" mask="url(#path-1-inside-1_18_3)"/>
<path d="M58.8092 32.6031C58.0837 33.3287 58.0837 34.505 58.8092 35.2305C59.5347 35.956 60.711 35.956 61.4365 35.2305L64.0639 32.6031C64.7894 31.8776 64.7894 30.7013 64.0639 29.9758C63.3383 29.2503 62.162 29.2503 61.4365 29.9758L58.8092 32.6031Z" stroke="#404040" stroke-width="7.43124" mask="url(#path-1-inside-1_18_3)"/>
<path d="M69.956 38.9461C69.2305 38.2206 69.2305 37.0443 69.956 36.3188L72.5834 33.6914C73.3089 32.9659 74.4852 32.9659 75.2107 33.6914C75.9362 34.4169 75.9362 35.5932 75.2107 36.3188L72.5834 38.9461C71.8579 39.6716 70.6816 39.6716 69.956 38.9461Z" stroke="#404040" stroke-width="7.43124" mask="url(#path-1-inside-1_18_3)"/>
<path d="M77.3873 43.75C76.6618 44.4755 76.6618 45.6518 77.3873 46.3773C78.1128 47.1029 79.2891 47.1029 80.0146 46.3773L82.642 43.75C83.3675 43.0245 83.3675 41.8482 82.642 41.1227C81.9164 40.3971 80.7401 40.3971 80.0146 41.1227L77.3873 43.75Z" stroke="#404040" stroke-width="7.43124" mask="url(#path-1-inside-1_18_3)"/>
<path d="M61.0386 47.492C60.3131 46.7665 60.3131 45.5902 61.0386 44.8647L63.6659 42.2374C64.3914 41.5118 65.5677 41.5118 66.2933 42.2374C67.0188 42.9629 67.0188 44.1392 66.2933 44.8647L63.6659 47.492C62.9404 48.2176 61.7641 48.2176 61.0386 47.492Z" stroke="#404040" stroke-width="7.43124" mask="url(#path-1-inside-1_18_3)"/>
<path fill-rule="evenodd" clip-rule="evenodd" d="M25.2157 54.2221C21.1124 54.137 17.7646 50.6811 18.9478 46.7512C19.5048 44.9014 20.2585 43.0905 21.2033 41.339C23.3683 37.3258 26.4947 33.7034 30.4039 30.6786C34.3132 27.6538 38.9288 25.2859 43.9871 23.7099C49.0455 22.134 54.4477 21.3809 59.8851 21.4937C65.3225 21.6065 70.6887 22.583 75.6774 24.3674C80.6661 26.1518 85.1795 28.7092 88.9599 31.8936C92.7403 35.0779 95.7137 38.8269 97.7104 42.9264C98.0274 43.5773 98.3189 44.2351 98.5845 44.8987C100.872 50.6142 95.6072 55.6826 89.4523 55.5549L25.2157 54.2221ZM22.5057 47.8225C22.9887 46.2181 23.6449 44.639 24.4734 43.1031C26.3719 39.584 29.1441 36.3515 32.6777 33.6173C36.2124 30.8823 40.4261 28.7111 45.0924 27.2573C49.7581 25.8037 54.7604 25.1038 59.808 25.2085C64.8556 25.3132 69.8245 26.2201 74.426 27.866C79.0279 29.5121 83.148 31.8562 86.5662 34.7354C89.9833 37.6138 92.6191 40.9586 94.3699 44.5533C94.648 45.1243 94.903 45.6999 95.1349 46.2794C95.6917 47.6705 95.3869 48.8788 94.4438 49.9089C93.4122 51.0357 91.608 51.8832 89.5293 51.8401L25.2928 50.5073C24.2407 50.4855 23.3763 50.0279 22.8887 49.4738C22.4512 48.9767 22.3192 48.4419 22.5057 47.8225Z" stroke="#404040" stroke-width="7.43124" mask="url(#path-1-inside-1_18_3)"/>
<path d="M24.4265 91.0845C20.3224 91.0845 16.9953 94.4116 16.9953 98.5158C16.9953 102.62 20.3224 105.947 24.4265 105.947H78.303C79.329 105.947 80.1608 105.115 80.1608 104.089C80.1608 103.063 79.329 102.231 78.303 102.231H24.4265C22.3745 102.231 20.7109 100.568 20.7109 98.5158C20.7109 96.4637 22.3745 94.8001 24.4265 94.8001H95.0233C97.0754 94.8001 98.7389 96.4637 98.7389 98.5158C98.7389 100.568 97.0754 102.231 95.0233 102.231H87.592C86.566 102.231 85.7342 103.063 85.7342 104.089C85.7342 105.115 86.566 105.947 87.592 105.947H95.0233C99.1274 105.947 102.455 102.62 102.455 98.5158C102.455 94.4116 99.1274 91.0845 95.0233 91.0845H24.4265Z" stroke="#404040" stroke-width="7.43124" mask="url(#path-1-inside-1_18_3)"/>
<path d="M20.1028 59.9849C21.2451 61.0233 22.1818 61.3596 22.9403 61.3596C23.6988 61.3596 24.6355 61.0233 25.7778 59.9849C27.3603 58.5462 29.1483 57.644 31.1147 57.644C33.081 57.644 34.869 58.5462 36.4515 59.9849C37.5938 61.0233 38.5306 61.3596 39.289 61.3596C40.0475 61.3596 40.9843 61.0233 42.1265 59.9849C43.709 58.5462 45.4971 57.644 47.4634 57.644C49.4297 57.644 51.2177 58.5462 52.8003 59.9849C53.9425 61.0233 54.8793 61.3596 55.6377 61.3596C56.3962 61.3596 57.333 61.0233 58.4752 59.9849C60.0578 58.5462 61.8458 57.644 63.8121 57.644C65.7784 57.644 67.5664 58.5462 69.149 59.9849C70.2912 61.0233 71.228 61.3596 71.9865 61.3596C72.7449 61.3596 73.6817 61.0233 74.8239 59.9849C76.4065 58.5462 78.1945 57.644 80.1608 57.644C82.1271 57.644 83.9152 58.5462 85.4977 59.9849C86.64 61.0233 87.5767 61.3596 88.3352 61.3596C89.0937 61.3596 90.0304 61.0233 91.1727 59.9849C92.7552 58.5462 94.5432 57.644 96.5095 57.644C98.4759 57.644 100.264 58.5462 101.846 59.9849C102.606 60.6751 102.662 61.8501 101.971 62.6093C101.281 63.3685 100.106 63.4244 99.347 62.7343C98.2048 61.6958 97.268 61.3596 96.5095 61.3596C95.7511 61.3596 94.8143 61.6958 93.6721 62.7343C92.0895 64.1729 90.3015 65.0752 88.3352 65.0752C86.3689 65.0752 84.5808 64.1729 82.9983 62.7343C81.8561 61.6958 80.9193 61.3596 80.1608 61.3596C79.4024 61.3596 78.4656 61.6958 77.3233 62.7343C75.7408 64.1729 73.9528 65.0752 71.9865 65.0752C70.0201 65.0752 68.2321 64.1729 66.6496 62.7343C65.5073 61.6958 64.5706 61.3596 63.8121 61.3596C63.0536 61.3596 62.1169 61.6958 60.9746 62.7343C59.3921 64.1729 57.6041 65.0752 55.6377 65.0752C53.6714 65.0752 51.8834 64.1729 50.3009 62.7343C49.1586 61.6958 48.2219 61.3596 47.4634 61.3596C46.7049 61.3596 45.7682 61.6958 44.6259 62.7343C43.0434 64.1729 41.2553 65.0752 39.289 65.0752C37.3227 65.0752 35.5347 64.1729 33.9521 62.7343C32.8099 61.6958 31.8731 61.3596 31.1147 61.3596C30.3562 61.3596 29.4194 61.6958 28.2772 62.7343C26.6946 64.1729 24.9066 65.0752 22.9403 65.0752C20.974 65.0752 19.186 64.1729 17.6034 62.7343C16.8442 62.0441 16.7883 60.8691 17.4785 60.1099C18.1686 59.3507 19.3436 59.2947 20.1028 59.9849Z" stroke="#404040" stroke-width="7.43124" mask="url(#path-1-inside-1_18_3)"/>
<path d="M24.4266 74.3642C24.4266 73.3382 25.2583 72.5064 26.2844 72.5064H96.8811C97.9072 72.5064 98.7389 71.6747 98.7389 70.6486C98.7389 69.6226 97.9072 68.7908 96.8811 68.7908H26.2844C23.2062 68.7908 20.7109 71.2861 20.7109 74.3642C20.7109 77.4424 23.2062 79.9377 26.2844 79.9377H93.1655C94.1915 79.9377 95.0233 80.7694 95.0233 81.7955C95.0233 82.8215 94.1915 83.6533 93.1655 83.6533H22.5687C21.5427 83.6533 20.7109 84.4851 20.7109 85.5111C20.7109 86.5371 21.5427 87.3689 22.5687 87.3689H93.1655C96.2436 87.3689 98.7389 84.8736 98.7389 81.7955C98.7389 78.7174 96.2436 76.2221 93.1655 76.2221H26.2844C25.2583 76.2221 24.4266 75.3903 24.4266 74.3642Z" stroke="#404040" stroke-width="7.43124" mask="url(#path-1-inside-1_18_3)"/>
</svg>
