<svg width="120" height="120" viewBox="0 0 120 120" fill="none" xmlns="http://www.w3.org/2000/svg">
<path fill-rule="evenodd" clip-rule="evenodd" d="M84.7228 16.9132C79.3914 13.8351 72.5741 15.6618 69.496 20.9933L30.4773 88.5755C27.4018 93.9025 29.227 100.714 34.554 103.79C39.8885 106.87 46.71 105.035 49.7793 99.6938L68.5594 67.0154C69.0707 66.1258 68.764 64.9902 67.8744 64.4789C66.9848 63.9677 65.8492 64.2744 65.3379 65.164L46.5578 97.8424C44.5125 101.401 39.9667 102.624 36.4118 100.572C32.8619 98.5224 31.6456 93.9832 33.6952 90.4333L72.7138 22.8511C74.7659 19.2968 79.3107 18.079 82.865 20.131C86.4193 22.1831 87.6371 26.728 85.5851 30.2823L74.0739 50.2203L70.7901 55.908C70.2771 56.7966 70.5815 57.9328 71.4701 58.4458C72.3587 58.9588 73.4949 58.6544 74.0079 57.7658L77.2917 52.0781L88.8029 32.1401C91.881 26.8087 90.0543 19.9913 84.7228 16.9132ZM56.0533 27.9488L29.7396 74.2009C28.7039 76.0214 26.5488 76.8861 24.5421 76.2864C21.7768 75.4601 20.4942 72.2802 21.9123 69.7665L35.0694 46.4446L48.0589 23.4197C49.5263 20.8188 53.0462 20.2871 55.2163 22.3387C56.7542 23.7927 57.0999 26.1092 56.0533 27.9488ZM59.2828 29.7862L32.9691 76.0383C31.0779 79.3625 27.1426 80.9415 23.4782 79.8465C18.4287 78.3375 16.0866 72.5309 18.6761 67.9408L31.8333 44.6189L44.8228 21.5941C47.4769 16.8895 53.8436 15.9278 57.7688 19.6387C60.5507 22.2686 61.1759 26.4587 59.2828 29.7862ZM70.6702 97.8324L96.9839 51.5803C98.0305 49.7407 97.6849 47.4242 96.1469 45.9702C93.9768 43.9186 90.4569 44.4503 88.9896 47.0513L76.0001 70.0761L62.843 93.398C61.4249 95.9117 62.7074 99.0916 65.4727 99.9179C67.4795 100.518 69.6345 99.6529 70.6702 97.8324ZM73.8998 99.6698L100.213 53.4177C102.107 50.0902 101.481 45.9001 98.6995 43.2702C94.7743 39.5593 88.4076 40.521 85.7534 45.2256L72.7639 68.2504L59.6068 91.5723C57.0173 96.1624 59.3593 101.969 64.4089 103.478C68.0733 104.573 72.0086 102.994 73.8998 99.6698ZM41.9667 87.7208C45.7908 85.4281 47.6791 82.1575 47.7526 77.6994C47.8474 71.9577 50.4179 67.5054 55.343 64.5525C59.167 62.2598 61.0553 58.9892 61.1288 54.5311C61.2236 48.7894 63.7941 44.3371 68.7192 41.3842C72.5433 39.0915 74.4315 35.8209 74.5051 31.3628C74.522 30.3369 75.3674 29.519 76.3933 29.5359C77.4192 29.5528 78.2371 30.3982 78.2202 31.4241C78.1254 37.1658 75.5549 41.618 70.6298 44.571C66.8058 46.8637 64.9175 50.1343 64.844 54.5924C64.7492 60.3341 62.1787 64.7864 57.2536 67.7393C53.4295 70.032 51.5413 73.3026 51.4677 77.7607C51.373 83.5024 48.8025 87.9547 43.8774 90.9076C42.9974 91.4352 41.8563 91.1495 41.3287 90.2695C40.8011 89.3895 41.0867 88.2485 41.9667 87.7208Z" fill="#404040"/>
</svg>
